{"glyphs":{"0":{"ha":910,"x_min":0,"x_max":0,"o":"m 456 -14 b 821 486 686 -14 821 185 b 456 986 821 789 686 986 b 89 486 229 986 89 789 b 456 -14 89 185 229 -14 z m 456 118 b 236 486 314 118 236 267 b 456 854 236 707 314 854 b 674 486 599 854 674 707 b 456 118 674 267 599 118 z "},"1":{"ha":669,"x_min":0,"x_max":0,"o":"m 610 0 l 610 132 l 418 132 l 418 979 l 358 974 l 85 943 l 103 811 l 272 833 l 272 132 l 81 132 l 81 0 z "},"2":{"ha":765,"x_min":0,"x_max":0,"o":"m 657 0 l 675 132 l 261 132 l 500 400 b 656 710 606 517 656 607 b 360 986 656 872 533 986 b 60 868 251 986 144 943 l 128 758 b 350 853 200 821 278 853 b 508 706 443 853 508 793 b 371 460 508 631 468 569 l 64 114 l 79 0 z "},"3":{"ha":761,"x_min":0,"x_max":0,"o":"m 518 276 b 335 118 518 181 446 118 b 118 203 257 118 176 150 l 40 97 b 346 -14 121 28 231 -14 b 667 256 535 -14 667 96 b 503 497 667 375 603 458 b 642 732 588 543 642 625 b 351 986 642 882 524 986 b 69 885 250 986 147 950 l 139 775 b 340 854 203 829 272 854 b 494 708 432 854 494 796 b 332 551 494 617 425 551 l 207 551 l 207 431 l 346 431 b 518 276 447 431 518 365 z "},"4":{"ha":813,"x_min":0,"x_max":0,"o":"m 760 208 l 775 329 l 624 329 l 624 972 l 490 972 l 26 313 l 42 208 l 481 208 l 481 0 l 624 0 l 624 208 z m 189 329 l 486 761 l 482 329 z "},"5":{"ha":799,"x_min":0,"x_max":0,"o":"m 114 440 l 228 421 b 403 492 275 465 335 492 b 571 307 501 492 571 417 b 383 118 571 194 494 118 b 150 213 299 118 218 153 l 74 107 b 390 -14 167 25 276 -14 b 718 313 586 -14 718 117 b 436 613 718 493 603 613 b 256 560 368 613 308 592 l 276 840 l 674 840 l 656 972 l 149 972 z "},"6":{"ha":822,"x_min":0,"x_max":0,"o":"m 747 301 b 501 607 747 469 642 596 b 443 603 482 607 463 606 b 239 472 358 594 289 547 b 242 528 239 492 240 510 b 468 854 250 704 306 854 b 647 779 535 854 600 824 l 725 885 b 463 986 656 946 561 986 b 93 483 208 986 93 764 b 438 -14 93 167 217 -14 b 747 301 619 -14 747 117 z m 433 488 b 599 303 531 488 599 413 b 463 121 599 204 543 131 b 432 119 453 119 442 118 b 244 369 328 124 264 211 b 433 488 288 435 347 488 z "},"7":{"ha":675,"x_min":0,"x_max":0,"o":"m 333 0 b 643 867 367 299 463 590 l 628 972 l 29 972 l 13 840 l 475 840 b 169 0 300 561 211 296 z "},"8":{"ha":807,"x_min":0,"x_max":0,"o":"m 731 253 b 565 504 731 365 675 450 b 706 740 653 561 706 647 b 408 986 706 882 581 986 b 104 742 240 986 115 883 b 104 703 103 728 103 715 b 244 493 110 611 157 540 b 76 242 139 435 76 343 b 399 -14 76 90 207 -14 b 731 253 590 -14 731 100 z m 388 569 b 251 718 300 597 254 646 l 251 740 b 410 860 260 811 324 860 b 564 722 500 860 564 803 b 456 549 564 653 525 592 z m 218 264 b 350 446 218 338 267 406 l 358 443 l 421 424 l 436 419 b 583 263 535 388 581 339 b 582 239 583 254 583 247 b 403 113 574 165 501 113 b 218 264 294 113 218 175 z "},"9":{"ha":808,"x_min":0,"x_max":0,"o":"m 724 489 b 379 986 724 806 599 986 b 69 672 197 986 69 856 b 322 365 69 500 174 376 b 361 365 335 365 349 364 b 576 493 449 369 522 417 b 575 439 576 475 576 457 b 351 118 565 267 510 118 b 168 190 283 118 215 147 l 92 85 b 356 -14 158 24 257 -14 b 724 489 608 -14 724 208 z m 217 674 b 379 854 217 778 286 854 b 572 601 486 854 553 765 b 381 485 529 538 468 485 b 217 674 283 485 217 561 z "},"\r":{"ha":0,"x_min":0,"x_max":0,"o":""}," ":{"ha":331,"x_min":0,"x_max":0,"o":""}," ":{"ha":331,"x_min":0,"x_max":0,"o":""},"A":{"ha":1006,"x_min":0,"x_max":0,"o":"m 194 0 l 283 219 l 714 219 l 803 0 l 961 0 l 567 972 l 435 972 l 43 0 z m 329 340 l 499 788 l 668 340 z "},"B":{"ha":943,"x_min":0,"x_max":0,"o":"m 150 0 l 539 0 b 851 267 725 0 851 115 b 679 501 851 382 786 463 b 815 719 763 543 815 621 b 517 972 815 867 697 972 l 150 972 z m 506 849 b 668 703 604 849 668 789 b 506 551 668 613 607 551 l 296 551 l 296 849 z m 533 124 l 296 124 l 296 435 l 533 435 b 703 282 632 435 703 374 b 533 124 703 192 639 124 z "},"C":{"ha":943,"x_min":0,"x_max":0,"o":"m 242 486 b 558 854 242 703 367 854 b 792 767 646 854 732 824 l 871 872 b 556 986 790 946 679 986 b 93 486 281 986 93 781 b 554 -14 93 189 278 -14 b 871 101 679 -14 789 26 l 792 206 b 558 118 732 149 649 118 b 242 486 367 118 242 269 z "},"D":{"ha":1050,"x_min":0,"x_max":0,"o":"m 150 0 l 501 0 b 956 486 771 0 956 200 b 501 972 956 775 771 972 l 150 972 z m 501 840 b 808 486 685 840 808 693 b 501 132 808 282 685 132 l 296 132 l 296 840 z "},"E":{"ha":875,"x_min":0,"x_max":0,"o":"m 769 0 l 786 132 l 296 132 l 296 429 l 699 429 l 699 556 l 296 556 l 296 840 l 775 840 l 758 972 l 150 972 l 150 0 z "},"F":{"ha":801,"x_min":0,"x_max":0,"o":"m 678 399 l 678 532 l 296 532 l 296 840 l 742 840 l 724 972 l 150 972 l 150 0 l 296 0 l 296 399 z "},"G":{"ha":1031,"x_min":0,"x_max":0,"o":"m 914 526 l 569 526 l 569 400 l 775 400 l 775 175 b 569 118 718 136 639 118 b 242 486 369 118 242 268 b 574 854 242 703 372 854 b 814 767 668 854 753 824 l 892 871 b 568 986 810 946 697 986 b 93 486 286 986 93 781 b 567 -14 93 188 283 -14 b 914 104 693 -14 824 26 z "},"H":{"ha":1097,"x_min":0,"x_max":0,"o":"m 296 972 l 150 972 l 150 0 l 296 0 l 296 429 l 801 429 l 801 0 l 947 0 l 947 972 l 801 972 l 801 563 l 296 563 z "},"I":{"ha":454,"x_min":0,"x_max":0,"o":"m 300 972 l 154 972 l 154 0 l 300 0 z "},"J":{"ha":704,"x_min":0,"x_max":0,"o":"m 25 61 b 256 -14 81 14 171 -14 b 561 306 436 -14 561 110 l 561 972 l 417 972 l 417 306 b 249 118 417 190 347 118 b 82 178 190 118 126 140 z "},"K":{"ha":975,"x_min":0,"x_max":0,"o":"m 150 972 l 150 0 l 296 0 l 296 329 l 388 429 l 749 0 l 929 0 l 492 535 l 897 972 l 722 972 l 296 515 l 296 972 z "},"L":{"ha":817,"x_min":0,"x_max":0,"o":"m 738 0 l 754 132 l 296 132 l 296 972 l 150 972 l 150 0 z "},"M":{"ha":1383,"x_min":0,"x_max":0,"o":"m 1192 972 l 1051 972 l 693 156 l 333 972 l 192 972 l 144 0 l 288 0 l 303 299 l 317 700 l 625 0 l 760 0 l 1067 692 l 1081 299 l 1094 0 l 1239 0 z "},"N":{"ha":1106,"x_min":0,"x_max":0,"o":"m 954 972 l 810 972 l 810 640 l 814 249 l 283 972 l 150 972 l 150 0 l 296 0 l 296 332 l 290 731 l 826 0 l 954 0 z "},"O":{"ha":1096,"x_min":0,"x_max":0,"o":"m 549 -14 b 1001 486 817 -14 1001 192 b 549 986 1001 783 817 986 b 93 486 283 986 93 782 b 549 -14 93 192 282 -14 z m 549 118 b 242 486 367 118 242 274 b 549 854 242 701 367 854 b 854 486 731 854 854 701 b 549 118 854 274 731 118 z "},"P":{"ha":926,"x_min":0,"x_max":0,"o":"m 150 0 l 296 0 l 296 335 l 504 335 b 851 657 708 335 851 467 b 517 972 851 842 714 972 l 150 972 z m 504 844 b 697 656 617 844 697 768 b 504 463 697 539 618 463 l 296 463 l 296 844 z "},"Q":{"ha":1096,"x_min":0,"x_max":0,"o":"m 549 -14 b 676 7 593 -14 638 -6 b 904 -233 726 -76 803 -158 l 1004 -126 b 800 61 914 -68 847 -6 b 1001 486 926 146 1001 297 b 549 986 1001 783 817 986 b 93 486 282 986 93 783 b 549 -14 93 192 282 -14 z m 549 118 b 242 486 367 118 242 274 b 549 854 242 701 367 854 b 854 486 731 854 854 701 b 549 118 854 274 731 118 z "},"R":{"ha":961,"x_min":0,"x_max":0,"o":"m 869 0 l 644 379 b 857 661 774 418 857 522 b 522 972 857 847 721 972 l 150 972 l 150 0 l 296 0 l 296 353 l 499 353 l 707 0 z m 511 844 b 703 661 624 844 703 774 b 511 478 703 549 624 478 l 296 478 l 296 844 z "},"S":{"ha":843,"x_min":0,"x_max":0,"o":"m 746 264 b 497 547 746 403 668 490 l 369 589 b 239 722 278 619 239 663 b 410 854 239 804 304 854 b 686 775 486 854 579 838 l 732 899 b 407 986 626 964 513 986 b 90 710 210 986 90 878 b 332 446 90 583 169 499 l 461 406 b 599 258 556 374 599 325 b 419 118 599 171 531 118 b 122 201 339 118 235 138 l 75 79 b 419 -14 189 8 308 -14 b 746 264 624 -14 746 96 z "},"T":{"ha":874,"x_min":0,"x_max":0,"o":"m 824 840 l 807 972 l 67 972 l 49 840 l 364 840 l 364 0 l 508 0 l 508 840 z "},"U":{"ha":1044,"x_min":0,"x_max":0,"o":"m 282 382 l 282 972 l 136 972 l 136 382 b 522 -14 136 139 289 -14 b 908 382 758 -14 908 139 l 908 972 l 763 972 l 763 382 b 522 118 763 221 675 118 b 282 382 372 118 282 221 z "},"V":{"ha":953,"x_min":0,"x_max":0,"o":"m 431 0 l 547 1 l 547 0 l 917 972 l 771 972 l 606 546 l 479 204 l 353 546 l 188 972 l 36 972 l 386 53 z "},"W":{"ha":1399,"x_min":0,"x_max":0,"o":"m 1335 972 l 1193 972 l 1090 586 l 1003 235 l 771 972 l 631 972 l 632 971 l 401 240 l 315 586 l 215 972 l 63 972 l 317 0 l 460 0 l 701 783 l 940 0 l 1083 0 z "},"X":{"ha":964,"x_min":0,"x_max":0,"o":"m 203 0 l 474 388 l 757 0 l 931 0 l 568 501 l 903 972 l 733 972 l 485 618 l 228 972 l 53 972 l 392 504 l 33 0 z "},"Y":{"ha":921,"x_min":0,"x_max":0,"o":"m 896 972 l 735 972 l 463 526 l 190 972 l 24 972 l 389 382 l 389 0 l 535 0 l 535 385 z "},"Z":{"ha":850,"x_min":0,"x_max":0,"o":"m 788 0 l 788 132 l 247 132 l 775 857 l 760 972 l 82 972 l 82 840 l 582 840 l 53 114 l 68 0 z "},"Æ":{"ha":1472,"x_min":0,"x_max":0,"o":"m 1367 0 l 1383 132 l 893 132 l 893 429 l 1296 429 l 1296 556 l 893 556 l 893 840 l 1372 840 l 1356 972 l 674 972 l 43 0 l 197 0 l 346 219 l 747 219 l 747 0 z m 418 340 l 747 836 l 747 340 z "},"Œ":{"ha":1429,"x_min":0,"x_max":0,"o":"m 93 486 b 549 0 93 200 282 0 l 1324 0 l 1342 132 l 850 132 l 850 429 l 1253 429 l 1253 556 l 850 556 l 850 840 l 1331 840 l 1313 972 l 549 972 b 93 486 283 972 93 774 z m 706 132 l 549 132 b 242 486 367 132 242 281 b 549 840 242 693 367 840 l 706 840 z "},"Ł":{"ha":817,"x_min":0,"x_max":0,"o":"m 738 0 l 754 132 l 296 132 l 296 444 l 519 574 l 519 690 l 296 561 l 296 972 l 150 972 l 150 479 l 53 424 l 53 307 l 150 363 l 150 0 z "},"Ø":{"ha":1096,"x_min":0,"x_max":0,"o":"m 549 -14 b 1001 486 817 -14 1001 192 b 872 851 1001 636 953 764 l 982 1003 l 882 1003 l 810 903 b 549 986 739 956 649 986 b 93 486 283 986 93 782 b 233 113 93 331 146 201 l 131 -31 l 229 -31 l 297 61 b 549 -14 367 14 451 -14 z m 242 486 b 549 854 242 701 367 854 b 728 790 618 854 679 831 l 322 232 b 242 486 271 296 242 385 z m 549 118 b 378 175 483 118 425 138 l 783 731 b 854 486 828 668 854 583 b 549 118 854 274 731 118 z "},"Ð":{"ha":1050,"x_min":0,"x_max":0,"o":"m 53 547 l 53 443 l 150 443 l 150 0 l 501 0 b 956 486 771 0 956 200 b 501 972 956 775 771 972 l 150 972 l 150 547 z m 550 443 l 550 547 l 296 547 l 296 840 l 501 840 b 808 486 685 840 808 693 b 501 132 808 282 685 132 l 296 132 l 296 443 z "},"Þ":{"ha":922,"x_min":0,"x_max":0,"o":"m 296 972 l 150 972 l 150 0 l 296 0 l 296 188 l 510 188 b 856 510 713 188 856 321 b 524 825 856 693 718 825 l 296 825 z m 510 693 b 701 508 621 693 701 617 b 510 319 701 397 622 319 l 296 319 l 296 693 z "},"a":{"ha":733,"x_min":0,"x_max":0,"o":"m 74 140 b 243 -14 74 49 143 -14 b 476 101 322 -14 413 33 b 654 -14 493 26 546 -6 l 675 110 b 594 190 615 117 594 136 l 594 413 b 593 446 594 424 594 435 b 344 688 588 601 500 688 b 97 597 254 688 171 657 l 144 494 b 315 567 194 540 257 567 b 464 432 406 567 457 519 b 465 396 465 421 465 408 b 74 140 179 324 74 254 z m 211 160 b 465 308 211 224 286 268 l 465 182 b 297 86 417 124 351 86 b 211 160 243 86 211 114 z "},"b":{"ha":801,"x_min":0,"x_max":0,"o":"m 124 60 b 394 -14 222 10 303 -14 b 728 358 579 -14 728 97 b 483 688 728 557 632 688 b 258 564 397 688 314 639 l 258 1007 l 124 993 z m 443 564 b 589 354 535 564 589 486 b 390 110 589 172 496 110 b 258 140 350 110 303 118 l 258 442 b 443 564 303 515 376 564 z "},"c":{"ha":682,"x_min":0,"x_max":0,"o":"m 211 329 l 211 343 b 397 567 211 481 281 567 b 567 494 463 567 518 542 l 636 583 b 390 688 571 651 488 688 b 74 336 197 688 74 546 b 390 -14 74 126 197 -14 b 638 92 489 -14 572 24 l 568 179 b 397 106 519 131 463 106 b 211 329 281 106 211 193 z "},"d":{"ha":806,"x_min":0,"x_max":0,"o":"m 74 314 b 322 -14 74 115 171 -14 b 549 113 408 -14 493 36 l 549 0 l 682 0 l 682 1007 l 549 993 l 549 633 b 383 688 501 668 443 688 b 74 314 201 688 74 533 z m 213 321 b 410 564 213 469 289 564 b 549 515 461 564 510 546 l 549 235 b 361 110 501 160 429 110 b 213 321 267 110 213 188 z "},"e":{"ha":736,"x_min":0,"x_max":0,"o":"m 407 103 b 217 285 301 103 229 175 b 210 314 214 294 211 304 l 651 338 l 669 367 b 378 688 669 558 550 688 b 74 336 199 688 74 543 b 400 -14 74 131 203 -14 b 653 90 497 -14 590 21 l 581 175 b 407 103 533 125 471 103 z m 378 579 b 532 429 460 579 518 522 l 211 410 b 378 579 226 517 290 579 z "},"f":{"ha":539,"x_min":0,"x_max":0,"o":"m 511 557 l 525 674 l 294 674 l 294 768 b 403 890 294 844 336 890 b 518 851 436 890 474 883 l 568 957 b 385 1014 513 999 451 1014 b 160 768 250 1014 160 931 l 160 674 l 53 674 l 53 557 l 160 557 l 160 0 l 294 0 l 294 557 z "},"g":{"ha":757,"x_min":0,"x_max":0,"o":"m 711 -97 b 501 90 711 3 646 63 l 351 118 b 288 161 306 126 288 140 b 376 206 288 183 315 199 b 653 446 539 208 653 306 b 594 597 653 507 631 558 l 713 592 l 726 697 l 486 668 b 368 688 451 681 411 688 b 83 446 199 688 83 589 b 246 226 83 343 147 261 b 153 128 181 204 153 169 b 226 39 153 90 179 60 b 49 -135 115 6 49 -56 b 356 -319 49 -247 171 -319 b 711 -97 564 -319 711 -226 z m 368 304 b 221 446 278 304 221 361 b 368 588 221 531 278 588 b 515 446 460 588 515 531 b 368 304 515 361 460 304 z m 183 -117 b 339 3 183 -62 244 -17 l 458 -17 b 574 -108 535 -29 574 -61 b 368 -217 574 -172 493 -217 b 183 -117 250 -217 183 -181 z "},"h":{"ha":824,"x_min":0,"x_max":0,"o":"m 708 453 b 510 688 708 600 633 688 b 258 531 413 688 319 625 l 258 1007 l 124 993 l 124 0 l 258 0 l 258 403 b 465 563 311 497 389 563 b 575 424 535 563 575 511 l 575 0 l 708 0 z "},"i":{"ha":382,"x_min":0,"x_max":0,"o":"m 190 814 b 278 901 239 814 278 853 b 190 988 278 950 239 988 b 104 901 143 988 104 950 b 190 814 104 853 143 814 z m 258 681 l 124 667 l 124 0 l 258 0 z "},"j":{"ha":393,"x_min":0,"x_max":0,"o":"m 201 814 b 289 901 249 814 289 853 b 201 988 289 949 249 988 b 115 901 154 988 115 949 b 201 814 115 853 154 814 z m 269 681 l 135 667 l 135 -46 b 7 -196 135 -151 90 -196 l 39 -319 b 269 -46 190 -299 269 -206 z "},"k":{"ha":750,"x_min":0,"x_max":0,"o":"m 258 1007 l 124 993 l 124 0 l 258 0 l 258 208 l 335 292 l 567 0 l 732 0 l 429 378 l 700 674 l 538 674 l 258 365 z "},"l":{"ha":382,"x_min":0,"x_max":0,"o":"m 258 1007 l 124 993 l 124 0 l 258 0 z "},"m":{"ha":1215,"x_min":0,"x_max":0,"o":"m 233 681 l 100 667 l 125 439 l 125 0 l 260 0 l 260 407 b 453 563 307 496 383 563 b 546 428 511 563 546 513 l 546 0 l 681 0 l 681 407 b 874 563 728 496 804 563 b 967 428 932 563 967 513 l 967 0 l 1101 0 l 1101 453 b 921 688 1101 597 1032 688 b 671 518 825 688 732 621 b 500 688 654 625 592 688 b 251 521 404 688 313 621 z "},"n":{"ha":825,"x_min":0,"x_max":0,"o":"m 233 681 l 100 667 l 125 439 l 125 0 l 260 0 l 260 403 b 467 563 313 497 390 563 b 576 424 536 563 576 511 l 576 0 l 710 0 l 710 453 b 511 688 710 600 635 688 b 253 521 410 688 314 622 z "},"o":{"ha":792,"x_min":0,"x_max":0,"o":"m 396 -14 b 718 336 589 -14 718 131 b 396 688 718 544 589 688 b 74 336 206 688 74 544 b 396 -14 74 131 204 -14 z m 396 106 b 213 336 285 106 213 200 b 396 567 213 475 285 567 b 579 336 507 567 579 475 b 396 106 579 200 507 106 z "},"p":{"ha":803,"x_min":0,"x_max":0,"o":"m 233 681 l 100 667 l 125 439 l 125 -306 l 260 -306 l 260 22 b 419 -14 315 -3 368 -14 b 729 358 582 -14 729 97 b 485 688 729 557 633 688 b 249 550 393 688 304 633 z m 444 564 b 590 354 536 564 590 486 b 392 110 590 172 497 110 b 260 140 351 110 304 118 l 260 442 b 444 564 304 515 378 564 z "},"q":{"ha":801,"x_min":0,"x_max":0,"o":"m 678 614 b 407 688 579 664 499 688 b 74 314 222 688 74 575 b 322 -14 74 115 171 -14 b 544 110 406 -14 489 33 l 544 -306 l 678 -306 z m 411 564 b 544 533 453 564 499 554 l 544 231 b 361 110 500 158 428 110 b 213 321 267 110 213 188 b 411 564 213 501 307 564 z "},"r":{"ha":542,"x_min":0,"x_max":0,"o":"m 233 681 l 100 667 l 125 439 l 125 0 l 260 0 l 260 411 b 503 540 324 489 411 535 l 488 681 b 253 515 410 664 311 601 z "},"s":{"ha":657,"x_min":0,"x_max":0,"o":"m 313 414 b 221 494 242 431 221 460 b 331 578 221 546 260 578 b 531 510 396 578 463 556 l 579 610 b 328 688 501 663 418 688 b 83 483 171 688 83 604 b 265 294 83 382 150 322 l 350 274 b 450 183 426 254 450 228 b 328 96 450 129 407 96 b 113 164 256 96 185 119 l 64 64 b 331 -14 146 8 242 -14 b 586 193 496 -14 586 69 b 399 393 586 303 515 364 z "},"t":{"ha":576,"x_min":0,"x_max":0,"o":"m 139 222 b 360 -14 139 57 226 -14 b 547 42 429 -14 492 3 l 496 147 b 381 110 454 119 415 110 b 274 232 314 110 274 149 l 274 557 l 501 557 l 515 674 l 274 674 l 274 853 l 149 840 l 142 674 l 31 674 l 31 557 l 139 557 z "},"u":{"ha":796,"x_min":0,"x_max":0,"o":"m 563 -7 l 697 7 l 671 235 l 671 681 l 538 667 l 538 243 b 349 111 492 164 417 111 b 249 246 283 111 249 157 l 249 681 l 114 667 l 114 226 b 294 -14 114 68 176 -14 b 547 135 385 -14 485 44 z "},"v":{"ha":706,"x_min":0,"x_max":0,"o":"m 422 7 l 679 674 l 540 674 l 354 167 l 171 674 l 26 674 l 289 -7 z "},"w":{"ha":1081,"x_min":0,"x_max":0,"o":"m 849 7 l 850 7 l 1038 674 l 894 674 l 772 181 l 607 674 l 475 674 l 310 182 l 188 674 l 44 674 l 236 -7 l 369 7 l 540 500 l 717 -7 z "},"x":{"ha":714,"x_min":0,"x_max":0,"o":"m 175 0 l 349 250 l 529 0 l 689 0 l 433 349 l 665 674 l 514 674 l 361 451 l 201 674 l 42 674 l 276 351 l 25 0 z "},"y":{"ha":706,"x_min":0,"x_max":0,"o":"m 58 -196 l 90 -319 b 393 -67 251 -304 326 -240 l 457 101 l 679 674 l 540 674 l 353 167 l 171 674 l 26 674 l 288 -4 l 267 -57 b 58 -196 226 -160 178 -190 z "},"z":{"ha":654,"x_min":0,"x_max":0,"o":"m 596 0 l 596 117 l 229 117 l 588 578 l 567 674 l 81 674 l 81 557 l 411 557 l 53 96 l 74 0 z "},"æ":{"ha":1125,"x_min":0,"x_max":0,"o":"m 796 103 b 599 290 685 103 611 176 b 594 314 597 297 596 306 l 1040 338 l 1058 367 b 786 686 1058 551 947 679 b 751 686 775 688 763 686 b 544 567 664 679 592 636 b 360 686 511 635 446 679 b 325 686 349 686 338 688 b 97 597 242 683 164 653 l 143 494 b 315 567 193 540 257 567 b 464 436 403 567 457 521 b 467 399 465 424 467 411 l 400 393 b 74 157 214 375 74 299 b 253 -12 74 63 150 -7 b 285 -12 263 -14 274 -14 b 533 117 379 -7 472 43 b 769 -12 586 42 668 -7 b 806 -14 781 -14 793 -14 b 1040 90 896 -10 981 25 l 969 175 b 796 103 921 125 860 103 z m 767 579 b 921 429 849 579 907 522 l 596 410 b 767 579 611 517 676 579 z m 211 174 b 411 303 211 240 276 290 l 469 307 l 471 296 b 493 188 474 257 481 221 b 308 86 439 125 368 86 b 211 174 250 86 211 119 z "},"œ":{"ha":1244,"x_min":0,"x_max":0,"o":"m 396 -14 b 647 136 507 -14 596 47 b 886 -12 696 51 778 -4 b 929 -12 900 -14 914 -14 b 1161 90 1018 -10 1101 25 l 1089 175 b 915 103 1040 125 979 103 b 722 288 806 103 733 174 b 717 314 719 296 718 306 l 1160 338 l 1178 367 b 906 686 1178 551 1067 678 l 865 686 b 649 540 771 678 693 622 b 417 686 600 622 519 678 l 376 686 b 74 336 196 678 74 538 b 396 -14 74 131 204 -14 z m 886 579 b 1040 429 968 579 1026 522 l 718 410 b 886 579 733 517 797 579 z m 396 106 b 213 336 285 106 213 200 b 396 567 213 475 285 567 b 583 336 508 567 583 474 b 396 106 583 200 510 106 z "},"ł":{"ha":422,"x_min":0,"x_max":0,"o":"m 392 586 l 392 686 l 275 621 l 275 1007 l 140 993 l 140 550 l 38 493 l 38 392 l 140 450 l 140 0 l 275 0 l 275 521 z "},"ø":{"ha":792,"x_min":0,"x_max":0,"o":"m 396 -14 b 718 336 589 -14 718 131 b 624 596 718 444 683 533 l 700 704 l 611 704 l 564 639 b 396 688 518 671 460 688 b 74 336 206 688 74 544 b 169 78 74 229 108 139 l 93 -31 l 181 -31 l 228 35 b 396 -14 275 4 332 -14 z m 211 336 b 396 569 211 476 283 569 b 496 535 435 569 468 557 l 247 193 b 211 336 224 231 211 279 z m 396 104 b 299 138 358 104 324 117 l 544 479 b 581 336 568 443 581 393 b 396 104 581 199 508 104 z "},"ð":{"ha":799,"x_min":0,"x_max":0,"o":"m 322 1007 l 218 933 b 357 840 268 904 315 874 l 246 788 l 246 701 l 425 789 b 590 488 517 701 575 603 b 375 600 539 554 461 596 b 336 600 361 601 349 601 b 72 296 185 592 72 465 b 385 -14 72 118 206 -14 b 722 354 594 -14 708 149 l 722 356 b 722 440 724 383 724 413 b 538 842 713 599 643 732 l 660 900 l 660 985 l 475 897 b 322 1007 428 938 376 974 z m 389 107 b 211 294 286 107 211 188 b 393 488 211 415 283 488 b 592 347 486 488 568 428 b 389 107 578 197 510 107 z "},"þ":{"ha":803,"x_min":0,"x_max":0,"o":"m 729 358 b 485 688 729 557 632 688 b 258 564 397 688 314 639 l 258 1007 l 124 993 l 124 -306 l 258 -306 l 258 22 b 419 -14 314 -3 367 -14 b 729 358 582 -14 729 97 z m 444 564 b 590 354 536 564 590 486 b 392 110 590 172 496 110 b 258 140 350 110 303 118 l 258 442 b 444 564 304 514 376 564 z "},"ß":{"ha":919,"x_min":0,"x_max":0,"o":"m 564 503 b 722 614 564 553 614 596 b 744 761 738 667 744 721 b 451 1014 744 910 619 1014 b 132 700 251 1014 132 890 l 132 0 l 267 0 l 267 706 b 447 890 267 817 335 890 b 608 742 535 890 608 838 b 601 674 608 722 607 697 b 428 486 496 647 428 572 b 569 306 428 393 483 343 l 625 282 b 713 185 689 256 713 229 b 601 96 713 131 674 96 b 413 157 539 96 478 117 l 364 58 b 599 -14 439 11 519 -14 b 849 186 760 -14 849 67 b 678 397 849 303 782 349 l 632 418 b 564 503 583 440 564 467 z "},"ı":{"ha":382,"x_min":0,"x_max":0,"o":"m 258 681 l 124 667 l 124 0 l 258 0 z "},"ȷ":{"ha":393,"x_min":0,"x_max":0,"o":"m 269 681 l 135 667 l 135 -46 b 7 -196 135 -151 90 -196 l 39 -319 b 269 -46 190 -299 269 -206 z "},"ﬁ":{"ha":899,"x_min":0,"x_max":0,"o":"m 506 557 l 519 674 l 294 674 l 294 768 b 403 890 294 844 336 890 b 510 864 435 890 469 885 l 542 972 b 385 1014 494 1003 442 1014 b 160 768 250 1014 160 931 l 160 674 l 53 674 l 53 557 l 160 557 l 160 0 l 294 0 l 294 557 z m 708 814 b 794 901 757 814 794 853 b 708 988 794 950 757 988 b 621 901 660 988 621 950 b 708 814 621 853 660 814 z m 775 681 l 640 667 l 640 0 l 775 0 z "},"ﬂ":{"ha":899,"x_min":0,"x_max":0,"o":"m 506 557 l 519 674 l 294 674 l 294 768 b 403 890 294 844 336 890 b 510 864 435 890 469 885 l 542 972 b 385 1014 494 1003 442 1014 b 160 768 250 1014 160 931 l 160 674 l 53 674 l 53 557 l 160 557 l 160 0 l 294 0 l 294 557 z m 775 1007 l 640 993 l 640 0 l 775 0 z "},"Á":{"ha":1006,"x_min":0,"x_max":0,"o":"m 457 1069 l 549 1069 l 724 1301 l 588 1301 z m 194 0 l 283 219 l 714 219 l 803 0 l 961 0 l 567 972 l 435 972 l 43 0 z m 329 340 l 499 788 l 668 340 z "},"Â":{"ha":1006,"x_min":0,"x_max":0,"o":"m 608 1069 l 713 1069 l 550 1301 l 456 1301 l 286 1069 l 390 1069 l 499 1207 z m 194 0 l 283 219 l 714 219 l 803 0 l 961 0 l 567 972 l 435 972 l 43 0 z m 329 340 l 499 788 l 668 340 z "},"Ä":{"ha":1006,"x_min":0,"x_max":0,"o":"m 369 1104 b 450 1185 415 1104 450 1140 b 369 1264 450 1228 415 1264 b 292 1185 326 1264 292 1228 b 369 1104 292 1140 326 1104 z m 628 1104 b 707 1185 672 1104 707 1140 b 628 1264 707 1228 672 1264 b 547 1185 583 1264 547 1228 b 628 1104 547 1140 583 1104 z m 194 0 l 283 219 l 714 219 l 803 0 l 961 0 l 567 972 l 435 972 l 43 0 z m 329 340 l 499 788 l 668 340 z "},"À":{"ha":1006,"x_min":0,"x_max":0,"o":"m 543 1069 l 415 1301 l 278 1301 l 453 1069 z m 194 0 l 283 219 l 714 219 l 803 0 l 961 0 l 567 972 l 435 972 l 43 0 z m 329 340 l 499 788 l 668 340 z "},"Å":{"ha":1006,"x_min":0,"x_max":0,"o":"m 500 1039 b 657 1190 586 1039 657 1103 b 500 1343 657 1278 586 1343 b 342 1190 413 1343 342 1278 b 500 1039 342 1103 413 1039 z m 500 1113 b 424 1192 456 1113 424 1146 b 499 1269 424 1236 456 1269 b 575 1192 542 1269 575 1236 b 500 1113 575 1147 543 1113 z m 194 0 l 283 219 l 714 219 l 803 0 l 961 0 l 567 972 l 435 972 l 43 0 z m 329 340 l 499 788 l 668 340 z "},"Ã":{"ha":1006,"x_min":0,"x_max":0,"o":"m 585 1193 b 414 1240 528 1193 494 1240 b 274 1142 357 1240 301 1201 l 331 1096 b 414 1150 353 1129 382 1150 b 590 1103 472 1150 508 1103 b 726 1201 643 1103 696 1142 l 668 1247 b 585 1193 646 1214 615 1193 z m 194 0 l 283 219 l 714 219 l 803 0 l 961 0 l 567 972 l 435 972 l 43 0 z m 329 340 l 499 788 l 668 340 z "},"Ă":{"ha":1006,"x_min":0,"x_max":0,"o":"m 310 1276 b 500 1085 310 1165 388 1085 b 688 1276 611 1085 688 1164 l 592 1276 b 500 1176 590 1217 554 1176 b 406 1276 444 1176 407 1217 z m 194 0 l 283 219 l 714 219 l 803 0 l 961 0 l 567 972 l 435 972 l 43 0 z m 329 340 l 499 788 l 668 340 z "},"Ā":{"ha":1006,"x_min":0,"x_max":0,"o":"m 671 1124 l 671 1211 l 326 1211 l 326 1124 z m 194 0 l 283 219 l 714 219 l 803 0 l 961 0 l 567 972 l 435 972 l 43 0 z m 329 340 l 499 788 l 668 340 z "},"Ą":{"ha":1006,"x_min":0,"x_max":0,"o":"m 194 0 l 283 219 l 714 219 l 803 0 l 799 -25 b 701 -178 725 -74 701 -126 b 853 -308 701 -254 767 -308 b 983 -265 906 -308 943 -294 l 942 -192 b 876 -217 921 -207 899 -217 b 804 -156 832 -217 804 -193 b 883 -57 804 -121 831 -93 l 961 0 l 567 972 l 435 972 l 43 0 z m 329 340 l 499 788 l 668 340 z "},"Ç":{"ha":943,"x_min":0,"x_max":0,"o":"m 242 486 b 558 854 242 703 367 854 b 792 767 646 854 732 824 l 871 872 b 556 986 790 946 679 986 b 93 486 281 986 93 781 b 515 -12 93 204 260 6 l 478 -86 l 494 -119 l 547 -136 b 597 -182 583 -149 597 -160 b 533 -222 597 -207 574 -222 b 432 -199 501 -222 460 -211 l 400 -271 b 544 -299 443 -286 497 -299 b 688 -186 628 -299 688 -256 b 586 -76 688 -128 650 -97 l 554 -67 l 574 -14 b 871 101 690 -10 793 29 l 792 206 b 558 118 732 149 649 118 b 242 486 367 118 242 269 z "},"Ć":{"ha":943,"x_min":0,"x_max":0,"o":"m 513 1069 l 603 1069 l 778 1301 l 642 1301 z m 242 486 b 558 854 242 703 367 854 b 792 767 646 854 732 824 l 871 872 b 556 986 790 946 679 986 b 93 486 281 986 93 781 b 554 -14 93 189 278 -14 b 871 101 679 -14 789 26 l 792 206 b 558 118 732 149 649 118 b 242 486 367 118 242 269 z "},"Č":{"ha":943,"x_min":0,"x_max":0,"o":"m 767 1301 l 663 1301 l 556 1160 l 444 1301 l 340 1301 l 504 1069 l 597 1069 z m 242 486 b 558 854 242 703 367 854 b 792 767 646 854 732 824 l 871 872 b 556 986 790 946 679 986 b 93 486 281 986 93 781 b 554 -14 93 189 278 -14 b 871 101 679 -14 789 26 l 792 206 b 558 118 732 149 649 118 b 242 486 367 118 242 269 z "},"Ĉ":{"ha":943,"x_min":0,"x_max":0,"o":"m 664 1069 l 768 1069 l 606 1301 l 511 1301 l 342 1069 l 446 1069 l 554 1207 z m 242 486 b 558 854 242 703 367 854 b 792 767 646 854 732 824 l 871 872 b 556 986 790 946 679 986 b 93 486 281 986 93 781 b 554 -14 93 189 278 -14 b 871 101 679 -14 789 26 l 792 206 b 558 118 732 149 649 118 b 242 486 367 118 242 269 z "},"Ċ":{"ha":943,"x_min":0,"x_max":0,"o":"m 554 1090 b 640 1178 603 1090 640 1129 b 554 1265 640 1226 603 1265 b 467 1178 506 1265 467 1226 b 554 1090 467 1129 506 1090 z m 242 486 b 558 854 242 703 367 854 b 792 767 646 854 732 824 l 871 872 b 556 986 790 946 679 986 b 93 486 281 986 93 781 b 554 -14 93 189 278 -14 b 871 101 679 -14 789 26 l 792 206 b 558 118 732 149 649 118 b 242 486 367 118 242 269 z "},"Ď":{"ha":1050,"x_min":0,"x_max":0,"o":"m 736 1301 l 632 1301 l 525 1160 l 415 1301 l 311 1301 l 474 1069 l 568 1069 z m 150 0 l 501 0 b 956 486 771 0 956 200 b 501 972 956 775 771 972 l 150 972 z m 501 840 b 808 486 685 840 808 693 b 501 132 808 282 685 132 l 296 132 l 296 840 z "},"Đ":{"ha":1050,"x_min":0,"x_max":0,"o":"m 53 547 l 53 443 l 150 443 l 150 0 l 501 0 b 956 486 771 0 956 200 b 501 972 956 775 771 972 l 150 972 l 150 547 z m 550 443 l 550 547 l 296 547 l 296 840 l 501 840 b 808 486 685 840 808 693 b 501 132 808 282 685 132 l 296 132 l 296 443 z "},"É":{"ha":875,"x_min":0,"x_max":0,"o":"m 414 1069 l 504 1069 l 681 1301 l 543 1301 z m 769 0 l 786 132 l 296 132 l 296 429 l 699 429 l 699 556 l 296 556 l 296 840 l 775 840 l 758 972 l 150 972 l 150 0 z "},"Ê":{"ha":875,"x_min":0,"x_max":0,"o":"m 565 1069 l 669 1069 l 507 1301 l 413 1301 l 243 1069 l 347 1069 l 456 1207 z m 769 0 l 786 132 l 296 132 l 296 429 l 699 429 l 699 556 l 296 556 l 296 840 l 775 840 l 758 972 l 150 972 l 150 0 z "},"Ë":{"ha":875,"x_min":0,"x_max":0,"o":"m 329 1104 b 410 1185 375 1104 410 1140 b 329 1264 410 1228 375 1264 b 250 1185 286 1264 250 1228 b 329 1104 250 1140 286 1104 z m 588 1104 b 667 1185 632 1104 667 1140 b 588 1264 667 1228 632 1264 b 507 1185 543 1264 507 1228 b 588 1104 507 1140 543 1104 z m 769 0 l 786 132 l 296 132 l 296 429 l 699 429 l 699 556 l 296 556 l 296 840 l 775 840 l 758 972 l 150 972 l 150 0 z "},"È":{"ha":875,"x_min":0,"x_max":0,"o":"m 504 1069 l 376 1301 l 239 1301 l 414 1069 z m 769 0 l 786 132 l 296 132 l 296 429 l 699 429 l 699 556 l 296 556 l 296 840 l 775 840 l 758 972 l 150 972 l 150 0 z "},"Ĕ":{"ha":875,"x_min":0,"x_max":0,"o":"m 265 1276 b 456 1085 265 1165 344 1085 b 644 1276 567 1085 644 1164 l 549 1276 b 456 1176 547 1217 511 1176 b 363 1276 401 1176 364 1217 z m 769 0 l 786 132 l 296 132 l 296 429 l 699 429 l 699 556 l 296 556 l 296 840 l 775 840 l 758 972 l 150 972 l 150 0 z "},"Ě":{"ha":875,"x_min":0,"x_max":0,"o":"m 668 1301 l 564 1301 l 457 1160 l 346 1301 l 242 1301 l 406 1069 l 499 1069 z m 769 0 l 786 132 l 296 132 l 296 429 l 699 429 l 699 556 l 296 556 l 296 840 l 775 840 l 758 972 l 150 972 l 150 0 z "},"Ė":{"ha":875,"x_min":0,"x_max":0,"o":"m 454 1090 b 542 1178 503 1090 542 1129 b 454 1265 542 1226 503 1265 b 368 1178 407 1265 368 1226 b 454 1090 368 1129 407 1090 z m 769 0 l 786 132 l 296 132 l 296 429 l 699 429 l 699 556 l 296 556 l 296 840 l 775 840 l 758 972 l 150 972 l 150 0 z "},"Ē":{"ha":875,"x_min":0,"x_max":0,"o":"m 628 1124 l 628 1211 l 283 1211 l 283 1124 z m 769 0 l 786 132 l 296 132 l 296 429 l 699 429 l 699 556 l 296 556 l 296 840 l 775 840 l 758 972 l 150 972 l 150 0 z "},"Ę":{"ha":875,"x_min":0,"x_max":0,"o":"m 510 -178 b 636 -304 510 -246 564 -296 b 685 -306 653 -307 668 -307 b 792 -265 725 -303 757 -290 l 750 -192 b 685 -217 729 -207 707 -217 b 618 -175 649 -217 625 -200 b 618 -140 614 -165 614 -153 b 692 -57 625 -112 649 -86 l 733 -21 l 769 0 l 786 132 l 296 132 l 296 429 l 699 429 l 699 556 l 296 556 l 296 840 l 775 840 l 758 972 l 150 972 l 150 0 l 638 0 b 565 -60 608 -19 585 -39 b 510 -178 525 -100 510 -139 z "},"Ğ":{"ha":1031,"x_min":0,"x_max":0,"o":"m 378 1276 b 568 1085 378 1165 456 1085 b 756 1276 679 1085 756 1164 l 661 1276 b 568 1176 660 1217 624 1176 b 475 1276 513 1176 476 1217 z m 914 526 l 569 526 l 569 400 l 775 400 l 775 175 b 569 118 718 136 639 118 b 242 486 369 118 242 268 b 574 854 242 703 372 854 b 814 767 668 854 753 824 l 892 871 b 568 986 810 946 697 986 b 93 486 286 986 93 781 b 567 -14 93 188 283 -14 b 914 104 693 -14 824 26 z "},"Ĝ":{"ha":1031,"x_min":0,"x_max":0,"o":"m 676 1069 l 781 1069 l 618 1301 l 524 1301 l 356 1069 l 460 1069 l 567 1207 z m 914 526 l 569 526 l 569 400 l 775 400 l 775 175 b 569 118 718 136 639 118 b 242 486 369 118 242 268 b 574 854 242 703 372 854 b 814 767 668 854 753 824 l 892 871 b 568 986 810 946 697 986 b 93 486 286 986 93 781 b 567 -14 93 188 283 -14 b 914 104 693 -14 824 26 z "},"Ģ":{"ha":1031,"x_min":0,"x_max":0,"o":"m 914 526 l 569 526 l 569 400 l 775 400 l 775 175 b 569 118 718 136 639 118 b 242 486 369 118 242 268 b 574 854 242 703 372 854 b 814 767 668 854 753 824 l 892 871 b 568 986 810 946 697 986 b 93 486 286 986 93 781 b 567 -14 93 188 283 -14 b 914 104 693 -14 824 26 z m 457 -317 l 539 -317 l 628 -85 l 508 -85 z "},"Ġ":{"ha":1031,"x_min":0,"x_max":0,"o":"m 568 1090 b 654 1178 617 1090 654 1129 b 568 1265 654 1226 617 1265 b 481 1178 519 1265 481 1226 b 568 1090 481 1129 519 1090 z m 914 526 l 569 526 l 569 400 l 775 400 l 775 175 b 569 118 718 136 639 118 b 242 486 369 118 242 268 b 574 854 242 703 372 854 b 814 767 668 854 753 824 l 892 871 b 568 986 810 946 697 986 b 93 486 286 986 93 781 b 567 -14 93 188 283 -14 b 914 104 693 -14 824 26 z "},"Ħ":{"ha":1097,"x_min":0,"x_max":0,"o":"m 296 972 l 150 972 l 150 801 l 53 801 l 53 701 l 150 701 l 150 0 l 296 0 l 296 413 l 801 413 l 801 0 l 947 0 l 947 701 l 1046 701 l 1046 801 l 947 801 l 947 972 l 801 972 l 801 801 l 296 801 z m 296 546 l 296 701 l 801 701 l 801 546 z "},"Ĥ":{"ha":1097,"x_min":0,"x_max":0,"o":"m 658 1069 l 763 1069 l 600 1301 l 506 1301 l 336 1069 l 440 1069 l 547 1207 z m 296 972 l 150 972 l 150 0 l 296 0 l 296 429 l 801 429 l 801 0 l 947 0 l 947 972 l 801 972 l 801 563 l 296 563 z "},"Í":{"ha":454,"x_min":0,"x_max":0,"o":"m 190 1069 l 281 1069 l 456 1301 l 319 1301 z m 300 972 l 154 972 l 154 0 l 300 0 z "},"Î":{"ha":454,"x_min":0,"x_max":0,"o":"m 342 1069 l 446 1069 l 283 1301 l 189 1301 l 19 1069 l 124 1069 l 232 1207 z m 300 972 l 154 972 l 154 0 l 300 0 z "},"Ï":{"ha":454,"x_min":0,"x_max":0,"o":"m 103 1104 b 183 1185 147 1104 183 1140 b 103 1264 183 1228 147 1264 b 24 1185 58 1264 24 1228 b 103 1104 24 1140 58 1104 z m 360 1104 b 439 1185 406 1104 439 1140 b 360 1264 439 1228 406 1264 b 281 1185 317 1264 281 1228 b 360 1104 281 1140 317 1104 z m 300 972 l 154 972 l 154 0 l 300 0 z "},"Ì":{"ha":454,"x_min":0,"x_max":0,"o":"m 274 1069 l 144 1301 l 8 1301 l 183 1069 z m 300 972 l 154 972 l 154 0 l 300 0 z "},"Ĭ":{"ha":454,"x_min":0,"x_max":0,"o":"m 43 1276 b 233 1085 43 1165 121 1085 b 421 1276 344 1085 421 1164 l 326 1276 b 233 1176 325 1217 288 1176 b 139 1276 178 1176 140 1217 z m 300 972 l 154 972 l 154 0 l 300 0 z "},"İ":{"ha":454,"x_min":0,"x_max":0,"o":"m 232 1090 b 318 1178 281 1090 318 1129 b 232 1265 318 1226 281 1265 b 144 1178 183 1265 144 1226 b 232 1090 144 1129 183 1090 z m 300 972 l 154 972 l 154 0 l 300 0 z "},"Ī":{"ha":454,"x_min":0,"x_max":0,"o":"m 404 1124 l 404 1211 l 60 1211 l 60 1124 z m 300 972 l 154 972 l 154 0 l 300 0 z "},"Į":{"ha":454,"x_min":0,"x_max":0,"o":"m 69 -178 b 215 -308 69 -254 133 -308 b 347 -265 268 -308 306 -294 l 306 -193 b 239 -217 285 -208 263 -217 b 176 -175 206 -217 183 -200 b 175 -144 174 -165 174 -156 b 199 -92 175 -126 182 -111 b 261 -32 211 -72 232 -54 l 300 0 l 300 972 l 154 972 l 154 -12 b 124 -49 143 -24 133 -36 b 69 -178 85 -94 69 -136 z "},"Ĩ":{"ha":454,"x_min":0,"x_max":0,"o":"m 318 1196 b 147 1243 261 1196 228 1243 b 7 1144 92 1243 35 1206 l 64 1099 b 147 1153 86 1132 115 1153 b 324 1106 206 1153 242 1106 b 460 1204 376 1106 429 1146 l 401 1250 b 318 1196 379 1218 349 1196 z m 300 972 l 154 972 l 154 0 l 300 0 z "},"Ĵ":{"ha":693,"x_min":0,"x_max":0,"o":"m 581 1069 l 685 1069 l 522 1301 l 428 1301 l 260 1069 l 364 1069 l 471 1207 z m 25 61 b 256 -14 81 14 171 -14 b 561 306 436 -14 561 110 l 561 972 l 417 972 l 417 306 b 249 118 417 190 347 118 b 82 178 190 118 126 140 z "},"Ĳ":{"ha":1011,"x_min":0,"x_max":0,"o":"m 300 972 l 154 972 l 154 378 l 300 378 z m 150 89 b 475 -14 231 29 356 -14 b 869 369 707 -14 869 133 l 869 972 l 724 972 l 724 369 b 467 118 724 215 626 118 b 193 208 371 118 271 156 z "},"Ķ":{"ha":975,"x_min":0,"x_max":0,"o":"m 150 972 l 150 0 l 296 0 l 296 329 l 388 429 l 749 0 l 929 0 l 492 535 l 897 972 l 722 972 l 296 515 l 296 972 z m 400 -317 l 482 -317 l 571 -85 l 450 -85 z "},"Ĺ":{"ha":817,"x_min":0,"x_max":0,"o":"m 182 1069 l 272 1069 l 447 1301 l 311 1301 z m 738 0 l 754 132 l 296 132 l 296 972 l 150 972 l 150 0 z "},"Ľ":{"ha":817,"x_min":0,"x_max":0,"o":"m 450 749 l 528 749 l 593 1000 l 482 1000 z m 738 0 l 754 132 l 296 132 l 296 972 l 150 972 l 150 0 z "},"Ļ":{"ha":817,"x_min":0,"x_max":0,"o":"m 738 0 l 754 132 l 296 132 l 296 972 l 150 972 l 150 0 z m 340 -317 l 422 -317 l 511 -85 l 392 -85 z "},"Ŀ":{"ha":729,"x_min":0,"x_max":0,"o":"m 738 0 l 754 132 l 296 132 l 296 972 l 150 972 l 150 0 z m 490 538 b 582 446 490 488 531 446 b 674 538 633 446 674 488 b 582 629 674 589 633 629 b 490 538 531 629 490 589 z "},"Ñ":{"ha":1106,"x_min":0,"x_max":0,"o":"m 639 1196 b 468 1243 581 1196 549 1243 b 328 1144 411 1243 356 1206 l 385 1099 b 468 1153 407 1132 436 1153 b 643 1106 526 1153 563 1106 b 779 1204 697 1106 750 1146 l 722 1250 b 639 1196 700 1218 668 1196 z m 954 972 l 810 972 l 810 640 l 814 249 l 283 972 l 150 972 l 150 0 l 296 0 l 296 332 l 290 731 l 826 0 l 954 0 z "},"Ń":{"ha":1106,"x_min":0,"x_max":0,"o":"m 513 1069 l 603 1069 l 778 1301 l 642 1301 z m 954 972 l 810 972 l 810 640 l 814 249 l 283 972 l 150 972 l 150 0 l 296 0 l 296 332 l 290 731 l 826 0 l 954 0 z "},"Ň":{"ha":1106,"x_min":0,"x_max":0,"o":"m 767 1301 l 661 1301 l 554 1160 l 444 1301 l 340 1301 l 503 1069 l 597 1069 z m 954 972 l 810 972 l 810 640 l 814 249 l 283 972 l 150 972 l 150 0 l 296 0 l 296 332 l 290 731 l 826 0 l 954 0 z "},"Ņ":{"ha":1106,"x_min":0,"x_max":0,"o":"m 954 972 l 810 972 l 810 640 l 814 249 l 283 972 l 150 972 l 150 0 l 296 0 l 296 332 l 290 731 l 826 0 l 954 0 z m 444 -317 l 526 -317 l 615 -85 l 494 -85 z "},"Ó":{"ha":1096,"x_min":0,"x_max":0,"o":"m 506 1069 l 597 1069 l 772 1301 l 636 1301 z m 549 -14 b 1001 486 817 -14 1001 192 b 549 986 1001 783 817 986 b 93 486 283 986 93 782 b 549 -14 93 192 282 -14 z m 549 118 b 242 486 367 118 242 274 b 549 854 242 701 367 854 b 854 486 731 854 854 701 b 549 118 854 274 731 118 z "},"Ô":{"ha":1096,"x_min":0,"x_max":0,"o":"m 657 1069 l 761 1069 l 599 1301 l 504 1301 l 336 1069 l 440 1069 l 547 1207 z m 549 -14 b 1001 486 817 -14 1001 192 b 549 986 1001 783 817 986 b 93 486 283 986 93 782 b 549 -14 93 192 282 -14 z m 549 118 b 242 486 367 118 242 274 b 549 854 242 701 367 854 b 854 486 731 854 854 701 b 549 118 854 274 731 118 z "},"Ö":{"ha":1096,"x_min":0,"x_max":0,"o":"m 418 1104 b 499 1185 464 1104 499 1140 b 418 1264 499 1228 464 1264 b 339 1185 375 1264 339 1228 b 418 1104 339 1140 375 1104 z m 676 1104 b 756 1185 721 1104 756 1140 b 676 1264 756 1228 721 1264 b 596 1185 632 1264 596 1228 b 676 1104 596 1140 632 1104 z m 549 -14 b 1001 486 817 -14 1001 192 b 549 986 1001 783 817 986 b 93 486 283 986 93 782 b 549 -14 93 192 282 -14 z m 549 118 b 242 486 367 118 242 274 b 549 854 242 701 367 854 b 854 486 731 854 854 701 b 549 118 854 274 731 118 z "},"Ò":{"ha":1096,"x_min":0,"x_max":0,"o":"m 590 1069 l 463 1301 l 325 1301 l 500 1069 z m 549 -14 b 1001 486 817 -14 1001 192 b 549 986 1001 783 817 986 b 93 486 283 986 93 782 b 549 -14 93 192 282 -14 z m 549 118 b 242 486 367 118 242 274 b 549 854 242 701 367 854 b 854 486 731 854 854 701 b 549 118 854 274 731 118 z "},"Õ":{"ha":1096,"x_min":0,"x_max":0,"o":"m 633 1196 b 463 1243 575 1196 543 1243 b 322 1144 406 1243 350 1206 l 379 1099 b 463 1153 401 1132 431 1153 b 638 1106 521 1153 557 1106 b 774 1204 692 1106 744 1146 l 717 1250 b 633 1196 694 1218 663 1196 z m 549 -14 b 1001 486 817 -14 1001 192 b 549 986 1001 783 817 986 b 93 486 283 986 93 782 b 549 -14 93 192 282 -14 z m 549 118 b 242 486 367 118 242 274 b 549 854 242 701 367 854 b 854 486 731 854 854 701 b 549 118 854 274 731 118 z "},"Ŏ":{"ha":1096,"x_min":0,"x_max":0,"o":"m 358 1276 b 549 1085 358 1165 436 1085 b 736 1276 660 1085 736 1164 l 640 1276 b 549 1176 639 1217 603 1176 b 454 1276 493 1176 456 1217 z m 549 -14 b 1001 486 817 -14 1001 192 b 549 986 1001 783 817 986 b 93 486 283 986 93 782 b 549 -14 93 192 282 -14 z m 549 118 b 242 486 367 118 242 274 b 549 854 242 701 367 854 b 854 486 731 854 854 701 b 549 118 854 274 731 118 z "},"Ő":{"ha":1096,"x_min":0,"x_max":0,"o":"m 404 1069 l 485 1069 l 636 1301 l 507 1301 z m 613 1069 l 693 1069 l 844 1301 l 715 1301 z m 549 -14 b 1001 486 817 -14 1001 192 b 549 986 1001 783 817 986 b 93 486 283 986 93 782 b 549 -14 93 192 282 -14 z m 549 118 b 242 486 367 118 242 274 b 549 854 242 701 367 854 b 854 486 731 854 854 701 b 549 118 854 274 731 118 z "},"Ō":{"ha":1096,"x_min":0,"x_max":0,"o":"m 721 1124 l 721 1211 l 375 1211 l 375 1124 z m 549 -14 b 1001 486 817 -14 1001 192 b 549 986 1001 783 817 986 b 93 486 283 986 93 782 b 549 -14 93 192 282 -14 z m 549 118 b 242 486 367 118 242 274 b 549 854 242 701 367 854 b 854 486 731 854 854 701 b 549 118 854 274 731 118 z "},"Ŕ":{"ha":961,"x_min":0,"x_max":0,"o":"m 461 1069 l 551 1069 l 726 1301 l 590 1301 z m 869 0 l 644 379 b 857 661 774 418 857 522 b 522 972 857 847 721 972 l 150 972 l 150 0 l 296 0 l 296 353 l 499 353 l 707 0 z m 511 844 b 703 661 624 844 703 774 b 511 478 703 549 624 478 l 296 478 l 296 844 z "},"Ř":{"ha":961,"x_min":0,"x_max":0,"o":"m 699 1301 l 594 1301 l 488 1160 l 378 1301 l 274 1301 l 436 1069 l 531 1069 z m 869 0 l 644 379 b 857 661 774 418 857 522 b 522 972 857 847 721 972 l 150 972 l 150 0 l 296 0 l 296 353 l 499 353 l 707 0 z m 511 844 b 703 661 624 844 703 774 b 511 478 703 549 624 478 l 296 478 l 296 844 z "},"Ŗ":{"ha":961,"x_min":0,"x_max":0,"o":"m 869 0 l 644 379 b 857 661 774 418 857 522 b 522 972 857 847 721 972 l 150 972 l 150 0 l 296 0 l 296 353 l 499 353 l 707 0 z m 511 844 b 703 661 624 844 703 774 b 511 478 703 549 624 478 l 296 478 l 296 844 z m 383 -317 l 465 -317 l 554 -85 l 433 -85 z "},"Š":{"ha":843,"x_min":0,"x_max":0,"o":"m 621 1301 l 517 1301 l 408 1160 l 299 1301 l 194 1301 l 357 1069 l 451 1069 z m 746 264 b 497 547 746 403 668 490 l 369 589 b 239 722 278 619 239 663 b 410 854 239 804 304 854 b 686 775 486 854 579 838 l 732 899 b 407 986 626 964 513 986 b 90 710 210 986 90 878 b 332 446 90 583 169 499 l 461 406 b 599 258 556 374 599 325 b 419 118 599 171 531 118 b 122 201 339 118 235 138 l 75 79 b 419 -14 189 8 308 -14 b 746 264 624 -14 746 96 z "},"Ś":{"ha":843,"x_min":0,"x_max":0,"o":"m 365 1069 l 457 1069 l 632 1301 l 496 1301 z m 746 264 b 497 547 746 403 668 490 l 369 589 b 239 722 278 619 239 663 b 410 854 239 804 304 854 b 686 775 486 854 579 838 l 732 899 b 407 986 626 964 513 986 b 90 710 210 986 90 878 b 332 446 90 583 169 499 l 461 406 b 599 258 556 374 599 325 b 419 118 599 171 531 118 b 122 201 339 118 235 138 l 75 79 b 419 -14 189 8 308 -14 b 746 264 624 -14 746 96 z "},"Ş":{"ha":843,"x_min":0,"x_max":0,"o":"m 746 264 b 497 547 746 403 668 490 l 369 589 b 239 722 278 619 239 663 b 410 854 239 804 304 854 b 686 775 486 854 579 838 l 732 899 b 407 986 626 964 513 986 b 90 710 210 986 90 878 b 332 446 90 583 169 499 l 461 406 b 599 258 556 374 599 325 b 419 118 599 171 531 118 b 122 201 339 118 235 138 l 75 79 b 386 -14 179 15 285 -10 l 350 -86 l 367 -119 l 418 -136 b 468 -182 456 -149 468 -160 b 404 -222 468 -207 444 -222 b 304 -199 374 -222 331 -211 l 272 -271 b 415 -299 315 -286 368 -299 b 558 -186 499 -299 558 -256 b 457 -76 558 -128 521 -97 l 425 -67 l 446 -14 b 746 264 633 -6 746 103 z "},"Ŝ":{"ha":843,"x_min":0,"x_max":0,"o":"m 518 1069 l 622 1069 l 460 1301 l 365 1301 l 196 1069 l 300 1069 l 407 1207 z m 746 264 b 497 547 746 403 668 490 l 369 589 b 239 722 278 619 239 663 b 410 854 239 804 304 854 b 686 775 486 854 579 838 l 732 899 b 407 986 626 964 513 986 b 90 710 210 986 90 878 b 332 446 90 583 169 499 l 461 406 b 599 258 556 374 599 325 b 419 118 599 171 531 118 b 122 201 339 118 235 138 l 75 79 b 419 -14 189 8 308 -14 b 746 264 624 -14 746 96 z "},"Ș":{"ha":843,"x_min":0,"x_max":0,"o":"m 746 264 b 497 547 746 403 668 490 l 369 589 b 239 722 278 619 239 663 b 410 854 239 804 304 854 b 686 775 486 854 579 838 l 732 899 b 407 986 626 964 513 986 b 90 710 210 986 90 878 b 332 446 90 583 169 499 l 461 406 b 599 258 556 374 599 325 b 419 118 599 171 531 118 b 122 201 339 118 235 138 l 75 79 b 419 -14 189 8 308 -14 b 746 264 624 -14 746 96 z m 308 -317 l 390 -317 l 479 -85 l 360 -85 z "},"Ŧ":{"ha":874,"x_min":0,"x_max":0,"o":"m 667 424 l 667 526 l 508 526 l 508 840 l 824 840 l 807 972 l 67 972 l 49 840 l 364 840 l 364 526 l 183 526 l 183 424 l 364 424 l 364 0 l 508 0 l 508 424 z "},"Ť":{"ha":874,"x_min":0,"x_max":0,"o":"m 638 1301 l 533 1301 l 425 1160 l 315 1301 l 211 1301 l 374 1069 l 468 1069 z m 824 840 l 807 972 l 67 972 l 49 840 l 364 840 l 364 0 l 508 0 l 508 840 z "},"Ţ":{"ha":874,"x_min":0,"x_max":0,"o":"m 824 840 l 807 972 l 67 972 l 49 840 l 364 840 l 364 0 l 508 0 l 508 840 z m 313 -317 l 396 -317 l 483 -85 l 364 -85 z "},"Ț":{"ha":874,"x_min":0,"x_max":0,"o":"m 824 840 l 807 972 l 67 972 l 49 840 l 364 840 l 364 0 l 508 0 l 508 840 z m 313 -317 l 396 -317 l 483 -85 l 364 -85 z "},"Ú":{"ha":1044,"x_min":0,"x_max":0,"o":"m 481 1069 l 572 1069 l 747 1301 l 611 1301 z m 282 382 l 282 972 l 136 972 l 136 382 b 522 -14 136 139 289 -14 b 908 382 758 -14 908 139 l 908 972 l 763 972 l 763 382 b 522 118 763 221 675 118 b 282 382 372 118 282 221 z "},"Û":{"ha":1044,"x_min":0,"x_max":0,"o":"m 633 1069 l 738 1069 l 575 1301 l 481 1301 l 311 1069 l 415 1069 l 524 1207 z m 282 382 l 282 972 l 136 972 l 136 382 b 522 -14 136 139 289 -14 b 908 382 758 -14 908 139 l 908 972 l 763 972 l 763 382 b 522 118 763 221 675 118 b 282 382 372 118 282 221 z "},"Ü":{"ha":1044,"x_min":0,"x_max":0,"o":"m 394 1104 b 475 1185 440 1104 475 1140 b 394 1264 475 1228 440 1264 b 315 1185 351 1264 315 1228 b 394 1104 315 1140 351 1104 z m 653 1104 b 732 1185 697 1104 732 1140 b 653 1264 732 1228 697 1264 b 572 1185 608 1264 572 1228 b 653 1104 572 1140 608 1104 z m 282 382 l 282 972 l 136 972 l 136 382 b 522 -14 136 139 289 -14 b 908 382 758 -14 908 139 l 908 972 l 763 972 l 763 382 b 522 118 763 221 675 118 b 282 382 372 118 282 221 z "},"Ù":{"ha":1044,"x_min":0,"x_max":0,"o":"m 565 1069 l 438 1301 l 300 1301 l 475 1069 z m 282 382 l 282 972 l 136 972 l 136 382 b 522 -14 136 139 289 -14 b 908 382 758 -14 908 139 l 908 972 l 763 972 l 763 382 b 522 118 763 221 675 118 b 282 382 372 118 282 221 z "},"Ŭ":{"ha":1044,"x_min":0,"x_max":0,"o":"m 333 1276 b 524 1085 333 1165 411 1085 b 713 1276 635 1085 713 1164 l 617 1276 b 524 1176 615 1217 579 1176 b 431 1276 468 1176 432 1217 z m 282 382 l 282 972 l 136 972 l 136 382 b 522 -14 136 139 289 -14 b 908 382 758 -14 908 139 l 908 972 l 763 972 l 763 382 b 522 118 763 221 675 118 b 282 382 372 118 282 221 z "},"Ű":{"ha":1044,"x_min":0,"x_max":0,"o":"m 378 1069 l 458 1069 l 611 1301 l 481 1301 z m 588 1069 l 667 1069 l 819 1301 l 689 1301 z m 282 382 l 282 972 l 136 972 l 136 382 b 522 -14 136 139 289 -14 b 908 382 758 -14 908 139 l 908 972 l 763 972 l 763 382 b 522 118 763 221 675 118 b 282 382 372 118 282 221 z "},"Ū":{"ha":1044,"x_min":0,"x_max":0,"o":"m 696 1124 l 696 1211 l 350 1211 l 350 1124 z m 282 382 l 282 972 l 136 972 l 136 382 b 522 -14 136 139 289 -14 b 908 382 758 -14 908 139 l 908 972 l 763 972 l 763 382 b 522 118 763 221 675 118 b 282 382 372 118 282 221 z "},"Ų":{"ha":1044,"x_min":0,"x_max":0,"o":"m 282 382 l 282 972 l 136 972 l 136 406 b 138 357 136 389 138 374 b 478 -10 147 143 276 6 b 547 -8 501 -11 525 -11 b 435 -178 460 -79 435 -128 b 561 -304 435 -246 490 -296 b 611 -306 578 -307 594 -307 b 719 -265 651 -303 685 -290 l 678 -193 b 611 -217 657 -208 635 -217 b 538 -151 567 -217 538 -192 b 708 25 538 -97 600 -37 b 907 357 826 82 899 199 b 908 406 907 374 908 389 l 908 972 l 763 972 l 763 382 b 522 118 763 221 675 118 b 282 382 372 118 282 221 z "},"Ů":{"ha":1044,"x_min":0,"x_max":0,"o":"m 525 1040 b 682 1192 610 1040 682 1104 b 524 1343 682 1279 611 1343 b 367 1192 438 1343 367 1279 b 525 1040 367 1104 436 1040 z m 524 1114 b 449 1192 481 1114 449 1147 b 524 1269 449 1236 481 1269 b 599 1192 567 1269 599 1236 b 524 1114 599 1147 567 1114 z m 282 382 l 282 972 l 136 972 l 136 382 b 522 -14 136 139 289 -14 b 908 382 758 -14 908 139 l 908 972 l 763 972 l 763 382 b 522 118 763 221 675 118 b 282 382 372 118 282 221 z "},"Ũ":{"ha":1044,"x_min":0,"x_max":0,"o":"m 608 1196 b 438 1243 551 1196 518 1243 b 297 1144 381 1243 325 1206 l 354 1099 b 438 1153 376 1132 406 1153 b 614 1106 496 1153 532 1106 b 749 1204 667 1106 719 1146 l 692 1250 b 608 1196 669 1218 638 1196 z m 282 382 l 282 972 l 136 972 l 136 382 b 522 -14 136 139 289 -14 b 908 382 758 -14 908 139 l 908 972 l 763 972 l 763 382 b 522 118 763 221 675 118 b 282 382 372 118 282 221 z "},"Ẃ":{"ha":1399,"x_min":0,"x_max":0,"o":"m 661 1069 l 751 1069 l 926 1301 l 790 1301 z m 1335 972 l 1193 972 l 1090 586 l 1003 235 l 771 972 l 631 972 l 632 971 l 401 240 l 315 586 l 215 972 l 63 972 l 317 0 l 460 0 l 701 783 l 940 0 l 1083 0 z "},"Ŵ":{"ha":1399,"x_min":0,"x_max":0,"o":"m 813 1069 l 917 1069 l 754 1301 l 660 1301 l 490 1069 l 594 1069 l 703 1207 z m 1335 972 l 1193 972 l 1090 586 l 1003 235 l 771 972 l 631 972 l 632 971 l 401 240 l 315 586 l 215 972 l 63 972 l 317 0 l 460 0 l 701 783 l 940 0 l 1083 0 z "},"Ẅ":{"ha":1399,"x_min":0,"x_max":0,"o":"m 569 1104 b 650 1185 614 1104 650 1140 b 569 1264 650 1228 614 1264 b 490 1185 525 1264 490 1228 b 569 1104 490 1140 525 1104 z m 826 1104 b 906 1185 872 1104 906 1140 b 826 1264 906 1228 872 1264 b 747 1185 783 1264 747 1228 b 826 1104 747 1140 783 1104 z m 1335 972 l 1193 972 l 1090 586 l 1003 235 l 771 972 l 631 972 l 632 971 l 401 240 l 315 586 l 215 972 l 63 972 l 317 0 l 460 0 l 701 783 l 940 0 l 1083 0 z "},"Ẁ":{"ha":1399,"x_min":0,"x_max":0,"o":"m 744 1069 l 617 1301 l 479 1301 l 654 1069 z m 1335 972 l 1193 972 l 1090 586 l 1003 235 l 771 972 l 631 972 l 632 971 l 401 240 l 315 586 l 215 972 l 63 972 l 317 0 l 460 0 l 701 783 l 940 0 l 1083 0 z "},"Ý":{"ha":921,"x_min":0,"x_max":0,"o":"m 421 1069 l 511 1069 l 688 1301 l 550 1301 z m 896 972 l 735 972 l 463 526 l 190 972 l 24 972 l 389 382 l 389 0 l 535 0 l 535 385 z "},"Ÿ":{"ha":921,"x_min":0,"x_max":0,"o":"m 335 1104 b 415 1185 379 1104 415 1140 b 335 1264 415 1228 379 1264 b 256 1185 290 1264 256 1228 b 335 1104 256 1140 290 1104 z m 592 1104 b 671 1185 636 1104 671 1140 b 592 1264 671 1228 636 1264 b 513 1185 547 1264 513 1228 b 592 1104 513 1140 547 1104 z m 896 972 l 735 972 l 463 526 l 190 972 l 24 972 l 389 382 l 389 0 l 535 0 l 535 385 z "},"Ŷ":{"ha":921,"x_min":0,"x_max":0,"o":"m 574 1069 l 678 1069 l 515 1301 l 421 1301 l 251 1069 l 357 1069 l 464 1207 z m 896 972 l 735 972 l 463 526 l 190 972 l 24 972 l 389 382 l 389 0 l 535 0 l 535 385 z "},"Ỳ":{"ha":921,"x_min":0,"x_max":0,"o":"m 506 1069 l 376 1301 l 240 1301 l 415 1069 z m 896 972 l 735 972 l 463 526 l 190 972 l 24 972 l 389 382 l 389 0 l 535 0 l 535 385 z "},"Ž":{"ha":850,"x_min":0,"x_max":0,"o":"m 646 1301 l 542 1301 l 435 1160 l 324 1301 l 219 1301 l 382 1069 l 476 1069 z m 788 0 l 788 132 l 247 132 l 775 857 l 760 972 l 82 972 l 82 840 l 582 840 l 53 114 l 68 0 z "},"Ź":{"ha":850,"x_min":0,"x_max":0,"o":"m 392 1069 l 482 1069 l 657 1301 l 521 1301 z m 788 0 l 788 132 l 247 132 l 775 857 l 760 972 l 82 972 l 82 840 l 582 840 l 53 114 l 68 0 z "},"Ż":{"ha":850,"x_min":0,"x_max":0,"o":"m 433 1090 b 519 1178 482 1090 519 1129 b 433 1265 519 1226 482 1265 b 346 1178 385 1265 346 1226 b 433 1090 346 1129 385 1090 z m 788 0 l 788 132 l 247 132 l 775 857 l 760 972 l 82 972 l 82 840 l 582 840 l 53 114 l 68 0 z "},"á":{"ha":733,"x_min":0,"x_max":0,"o":"m 297 769 l 388 769 l 564 1003 l 426 1003 z m 74 140 b 243 -14 74 49 143 -14 b 476 101 322 -14 413 33 b 654 -14 493 26 546 -6 l 675 110 b 594 190 615 117 594 136 l 594 413 b 593 446 594 424 594 435 b 344 688 588 601 500 688 b 97 597 254 688 171 657 l 144 494 b 315 567 194 540 257 567 b 464 432 406 567 457 519 b 465 396 465 421 465 408 b 74 140 179 324 74 254 z m 211 160 b 465 308 211 224 286 268 l 465 182 b 297 86 417 124 351 86 b 211 160 243 86 211 114 z "},"â":{"ha":733,"x_min":0,"x_max":0,"o":"m 449 769 l 553 769 l 389 1003 l 296 1003 l 126 769 l 231 769 l 338 907 z m 74 140 b 243 -14 74 49 143 -14 b 476 101 322 -14 413 33 b 654 -14 493 26 546 -6 l 675 110 b 594 190 615 117 594 136 l 594 413 b 593 446 594 424 594 435 b 344 688 588 601 500 688 b 97 597 254 688 171 657 l 144 494 b 315 567 194 540 257 567 b 464 432 406 567 457 519 b 465 396 465 421 465 408 b 74 140 179 324 74 254 z m 211 160 b 465 308 211 224 286 268 l 465 182 b 297 86 417 124 351 86 b 211 160 243 86 211 114 z "},"ä":{"ha":733,"x_min":0,"x_max":0,"o":"m 204 804 b 285 885 249 804 285 842 b 204 964 285 928 249 964 b 125 885 161 964 125 928 b 204 804 125 842 161 804 z m 463 804 b 542 885 507 804 542 842 b 463 964 542 928 507 964 b 382 885 418 964 382 928 b 463 804 382 842 418 804 z m 74 140 b 243 -14 74 49 143 -14 b 476 101 322 -14 413 33 b 654 -14 493 26 546 -6 l 675 110 b 594 190 615 117 594 136 l 594 413 b 593 446 594 424 594 435 b 344 688 588 601 500 688 b 97 597 254 688 171 657 l 144 494 b 315 567 194 540 257 567 b 464 432 406 567 457 519 b 465 396 465 421 465 408 b 74 140 179 324 74 254 z m 211 160 b 465 308 211 224 286 268 l 465 182 b 297 86 417 124 351 86 b 211 160 243 86 211 114 z "},"à":{"ha":733,"x_min":0,"x_max":0,"o":"m 382 769 l 253 1003 l 117 1003 l 290 769 z m 74 140 b 243 -14 74 49 143 -14 b 476 101 322 -14 413 33 b 654 -14 493 26 546 -6 l 675 110 b 594 190 615 117 594 136 l 594 413 b 593 446 594 424 594 435 b 344 688 588 601 500 688 b 97 597 254 688 171 657 l 144 494 b 315 567 194 540 257 567 b 464 432 406 567 457 519 b 465 396 465 421 465 408 b 74 140 179 324 74 254 z m 211 160 b 465 308 211 224 286 268 l 465 182 b 297 86 417 124 351 86 b 211 160 243 86 211 114 z "},"å":{"ha":733,"x_min":0,"x_max":0,"o":"m 340 746 b 497 897 426 746 497 810 b 339 1049 497 983 426 1049 b 182 897 253 1049 182 983 b 340 746 182 810 253 746 z m 339 818 b 264 897 296 818 264 851 b 339 975 264 942 296 975 b 414 897 382 975 414 942 b 339 818 414 853 382 818 z m 74 140 b 243 -14 74 49 143 -14 b 476 101 322 -14 413 33 b 654 -14 493 26 546 -6 l 675 110 b 594 190 615 117 594 136 l 594 413 b 593 446 594 424 594 435 b 344 688 588 601 500 688 b 97 597 254 688 171 657 l 144 494 b 315 567 194 540 257 567 b 464 432 406 567 457 519 b 465 396 465 421 465 408 b 74 140 179 324 74 254 z m 211 160 b 465 308 211 224 286 268 l 465 182 b 297 86 417 124 351 86 b 211 160 243 86 211 114 z "},"ã":{"ha":733,"x_min":0,"x_max":0,"o":"m 424 897 b 253 944 367 897 333 944 b 113 846 197 944 140 906 l 171 800 b 253 854 192 833 221 854 b 429 807 311 854 347 807 b 565 906 482 807 535 847 l 507 951 b 424 897 485 919 454 897 z m 74 140 b 243 -14 74 49 143 -14 b 476 101 322 -14 413 33 b 654 -14 493 26 546 -6 l 675 110 b 594 190 615 117 594 136 l 594 413 b 593 446 594 424 594 435 b 344 688 588 601 500 688 b 97 597 254 688 171 657 l 144 494 b 315 567 194 540 257 567 b 464 432 406 567 457 519 b 465 396 465 421 465 408 b 74 140 179 324 74 254 z m 211 160 b 465 308 211 224 286 268 l 465 182 b 297 86 417 124 351 86 b 211 160 243 86 211 114 z "},"ă":{"ha":733,"x_min":0,"x_max":0,"o":"m 149 978 b 339 785 149 865 228 785 b 528 978 451 785 528 864 l 432 978 b 339 878 431 918 394 878 b 246 978 285 878 247 918 z m 74 140 b 243 -14 74 49 143 -14 b 476 101 322 -14 413 33 b 654 -14 493 26 546 -6 l 675 110 b 594 190 615 117 594 136 l 594 413 b 593 446 594 424 594 435 b 344 688 588 601 500 688 b 97 597 254 688 171 657 l 144 494 b 315 567 194 540 257 567 b 464 432 406 567 457 519 b 465 396 465 421 465 408 b 74 140 179 324 74 254 z m 211 160 b 465 308 211 224 286 268 l 465 182 b 297 86 417 124 351 86 b 211 160 243 86 211 114 z "},"ā":{"ha":733,"x_min":0,"x_max":0,"o":"m 511 825 l 511 911 l 167 911 l 167 825 z m 74 140 b 243 -14 74 49 143 -14 b 476 101 322 -14 413 33 b 654 -14 493 26 546 -6 l 675 110 b 594 190 615 117 594 136 l 594 413 b 593 446 594 424 594 435 b 344 688 588 601 500 688 b 97 597 254 688 171 657 l 144 494 b 315 567 194 540 257 567 b 464 432 406 567 457 519 b 465 396 465 421 465 408 b 74 140 179 324 74 254 z m 211 160 b 465 308 211 224 286 268 l 465 182 b 297 86 417 124 351 86 b 211 160 243 86 211 114 z "},"ą":{"ha":733,"x_min":0,"x_max":0,"o":"m 74 140 b 243 -14 74 49 143 -14 b 476 101 322 -14 413 33 b 544 7 482 53 503 24 l 511 -15 b 467 -49 494 -26 481 -37 b 396 -178 414 -92 396 -135 b 511 -299 396 -243 446 -289 b 586 -303 538 -304 561 -307 b 681 -265 619 -299 650 -286 l 639 -192 b 571 -217 618 -207 594 -217 b 499 -156 526 -217 499 -193 b 561 -67 499 -125 518 -94 b 586 -51 568 -61 576 -57 l 654 -14 l 675 110 b 594 190 615 117 594 136 l 594 442 b 360 686 589 594 506 681 b 333 686 350 688 342 688 b 97 597 246 685 167 654 l 144 494 b 315 567 194 540 257 567 b 464 431 406 567 458 518 b 465 396 465 419 465 408 b 74 140 179 324 74 254 z m 211 160 b 465 308 211 224 286 268 l 465 182 b 297 86 417 124 351 86 b 211 160 243 86 211 114 z "},"ç":{"ha":689,"x_min":0,"x_max":0,"o":"m 211 329 l 211 343 b 397 567 211 481 281 567 b 567 494 463 567 518 542 l 636 583 b 390 688 571 651 488 688 b 74 336 197 688 74 546 b 357 -12 74 139 182 3 l 319 -86 l 336 -119 l 389 -136 b 439 -182 425 -149 439 -160 b 375 -222 439 -207 415 -222 b 274 -199 343 -222 301 -211 l 242 -271 b 385 -299 285 -286 339 -299 b 529 -186 469 -299 529 -256 b 428 -76 529 -128 492 -97 l 396 -67 l 417 -14 b 638 92 504 -7 578 29 l 568 179 b 397 106 519 131 463 106 b 211 329 281 106 211 193 z "},"ć":{"ha":689,"x_min":0,"x_max":0,"o":"m 344 769 l 436 769 l 611 1003 l 475 1003 z m 211 329 l 211 343 b 397 567 211 481 281 567 b 567 494 463 567 518 542 l 636 583 b 390 688 571 651 488 688 b 74 336 197 688 74 546 b 390 -14 74 126 197 -14 b 638 92 489 -14 572 24 l 568 179 b 397 106 519 131 463 106 b 211 329 281 106 211 193 z "},"č":{"ha":689,"x_min":0,"x_max":0,"o":"m 601 1003 l 497 1003 l 390 861 l 279 1003 l 175 1003 l 338 769 l 432 769 z m 211 329 l 211 343 b 397 567 211 481 281 567 b 567 494 463 567 518 542 l 636 583 b 390 688 571 651 488 688 b 74 336 197 688 74 546 b 390 -14 74 126 197 -14 b 638 92 489 -14 572 24 l 568 179 b 397 106 519 131 463 106 b 211 329 281 106 211 193 z "},"ĉ":{"ha":689,"x_min":0,"x_max":0,"o":"m 499 769 l 603 769 l 440 1003 l 346 1003 l 176 769 l 281 769 l 389 907 z m 211 329 l 211 343 b 397 567 211 481 281 567 b 567 494 463 567 518 542 l 636 583 b 390 688 571 651 488 688 b 74 336 197 688 74 546 b 390 -14 74 126 197 -14 b 638 92 489 -14 572 24 l 568 179 b 397 106 519 131 463 106 b 211 329 281 106 211 193 z "},"ċ":{"ha":689,"x_min":0,"x_max":0,"o":"m 389 790 b 475 879 438 790 475 831 b 389 965 475 928 438 965 b 303 879 340 965 303 928 b 389 790 303 831 340 790 z m 211 329 l 211 343 b 397 567 211 481 281 567 b 567 494 463 567 518 542 l 636 583 b 390 688 571 651 488 688 b 74 336 197 688 74 546 b 390 -14 74 126 197 -14 b 638 92 489 -14 572 24 l 568 179 b 397 106 519 131 463 106 b 211 329 281 106 211 193 z "},"ď":{"ha":871,"x_min":0,"x_max":0,"o":"m 74 314 b 322 -14 74 115 171 -14 b 549 113 408 -14 493 36 l 549 0 l 682 0 l 682 1007 l 549 993 l 549 633 b 383 688 501 668 443 688 b 74 314 201 688 74 533 z m 754 749 l 832 749 l 897 1000 l 785 1000 z m 213 321 b 410 564 213 469 289 564 b 549 515 461 564 510 546 l 549 235 b 361 110 501 160 429 110 b 213 321 267 110 213 188 z "},"đ":{"ha":806,"x_min":0,"x_max":0,"o":"m 74 314 b 322 -14 74 115 171 -14 b 549 113 408 -14 493 36 l 549 0 l 682 0 l 682 785 l 776 785 l 776 872 l 682 872 l 682 1007 l 549 993 l 549 872 l 382 872 l 382 785 l 549 785 l 549 633 b 383 688 501 668 443 688 b 74 314 201 688 74 533 z m 213 321 b 410 564 213 469 289 564 b 549 515 461 564 510 546 l 549 235 b 361 110 501 160 429 110 b 213 321 267 110 213 188 z "},"é":{"ha":736,"x_min":0,"x_max":0,"o":"m 335 769 l 425 769 l 600 1003 l 464 1003 z m 407 103 b 217 285 301 103 229 175 b 210 314 214 294 211 304 l 651 338 l 669 367 b 378 688 669 558 550 688 b 74 336 199 688 74 543 b 400 -14 74 131 203 -14 b 653 90 497 -14 590 21 l 581 175 b 407 103 533 125 471 103 z m 378 579 b 532 429 460 579 518 522 l 211 410 b 378 579 226 517 290 579 z "},"ê":{"ha":736,"x_min":0,"x_max":0,"o":"m 486 769 l 590 769 l 428 1003 l 333 1003 l 165 769 l 269 769 l 376 907 z m 407 103 b 217 285 301 103 229 175 b 210 314 214 294 211 304 l 651 338 l 669 367 b 378 688 669 558 550 688 b 74 336 199 688 74 543 b 400 -14 74 131 203 -14 b 653 90 497 -14 590 21 l 581 175 b 407 103 533 125 471 103 z m 378 579 b 532 429 460 579 518 522 l 211 410 b 378 579 226 517 290 579 z "},"ë":{"ha":736,"x_min":0,"x_max":0,"o":"m 247 804 b 328 885 292 804 328 842 b 247 964 328 928 292 964 b 168 885 204 964 168 928 b 247 804 168 842 204 804 z m 506 804 b 585 885 550 804 585 842 b 506 964 585 928 550 964 b 425 885 461 964 425 928 b 506 804 425 842 461 804 z m 407 103 b 217 285 301 103 229 175 b 210 314 214 294 211 304 l 651 338 l 669 367 b 378 688 669 558 550 688 b 74 336 199 688 74 543 b 400 -14 74 131 203 -14 b 653 90 497 -14 590 21 l 581 175 b 407 103 533 125 471 103 z m 378 579 b 532 429 460 579 518 522 l 211 410 b 378 579 226 517 290 579 z "},"è":{"ha":736,"x_min":0,"x_max":0,"o":"m 419 769 l 290 1003 l 154 1003 l 328 769 z m 407 103 b 217 285 301 103 229 175 b 210 314 214 294 211 304 l 651 338 l 669 367 b 378 688 669 558 550 688 b 74 336 199 688 74 543 b 400 -14 74 131 203 -14 b 653 90 497 -14 590 21 l 581 175 b 407 103 533 125 471 103 z m 378 579 b 532 429 460 579 518 522 l 211 410 b 378 579 226 517 290 579 z "},"ĕ":{"ha":736,"x_min":0,"x_max":0,"o":"m 188 978 b 378 785 188 865 265 785 b 565 978 489 785 565 864 l 471 978 b 378 878 469 918 433 878 b 285 978 322 878 286 918 z m 407 103 b 217 285 301 103 229 175 b 210 314 214 294 211 304 l 651 338 l 669 367 b 378 688 669 558 550 688 b 74 336 199 688 74 543 b 400 -14 74 131 203 -14 b 653 90 497 -14 590 21 l 581 175 b 407 103 533 125 471 103 z m 378 579 b 532 429 460 579 518 522 l 211 410 b 378 579 226 517 290 579 z "},"ě":{"ha":736,"x_min":0,"x_max":0,"o":"m 589 1003 l 485 1003 l 378 861 l 268 1003 l 164 1003 l 326 769 l 421 769 z m 407 103 b 217 285 301 103 229 175 b 210 314 214 294 211 304 l 651 338 l 669 367 b 378 688 669 558 550 688 b 74 336 199 688 74 543 b 400 -14 74 131 203 -14 b 653 90 497 -14 590 21 l 581 175 b 407 103 533 125 471 103 z m 378 579 b 532 429 460 579 518 522 l 211 410 b 378 579 226 517 290 579 z "},"ė":{"ha":736,"x_min":0,"x_max":0,"o":"m 376 790 b 463 879 425 790 463 831 b 376 965 463 928 425 965 b 290 879 328 965 290 928 b 376 790 290 831 328 790 z m 407 103 b 217 285 301 103 229 175 b 210 314 214 294 211 304 l 651 338 l 669 367 b 378 688 669 558 550 688 b 74 336 199 688 74 543 b 400 -14 74 131 203 -14 b 653 90 497 -14 590 21 l 581 175 b 407 103 533 125 471 103 z m 378 579 b 532 429 460 579 518 522 l 211 410 b 378 579 226 517 290 579 z "},"ē":{"ha":736,"x_min":0,"x_max":0,"o":"m 547 825 l 547 911 l 203 911 l 203 825 z m 407 103 b 217 285 301 103 229 175 b 210 314 214 294 211 304 l 651 338 l 669 367 b 378 688 669 558 550 688 b 74 336 199 688 74 543 b 400 -14 74 131 203 -14 b 653 90 497 -14 590 21 l 581 175 b 407 103 533 125 471 103 z m 378 579 b 532 429 460 579 518 522 l 211 410 b 378 579 226 517 290 579 z "},"ę":{"ha":736,"x_min":0,"x_max":0,"o":"m 407 103 b 214 290 300 103 225 176 b 210 314 213 297 211 306 l 651 338 l 669 367 b 378 688 669 558 550 688 b 74 336 199 688 74 543 b 369 -11 74 140 190 0 b 426 -7 388 -12 407 -11 b 328 -178 357 -69 328 -124 b 451 -303 328 -246 381 -294 b 507 -306 469 -306 489 -307 b 611 -265 544 -303 578 -289 l 569 -192 b 503 -217 549 -207 526 -217 b 431 -151 458 -217 431 -192 b 576 28 431 -96 482 -40 b 601 46 585 33 593 40 b 653 90 619 58 638 74 l 581 175 b 407 103 533 125 471 103 z m 378 579 b 532 429 460 579 518 522 l 211 410 b 378 579 226 517 290 579 z "},"ğ":{"ha":757,"x_min":0,"x_max":0,"o":"m 183 978 b 374 785 183 865 261 785 b 561 978 485 785 561 864 l 465 978 b 374 878 464 918 428 878 b 279 978 318 878 281 918 z m 711 -97 b 501 90 711 3 646 63 l 351 118 b 288 161 306 126 288 140 b 376 206 288 183 315 199 b 653 446 539 208 653 306 b 594 597 653 507 631 558 l 713 592 l 726 697 l 486 668 b 368 688 451 681 411 688 b 83 446 199 688 83 589 b 246 226 83 343 147 261 b 153 128 181 204 153 169 b 226 39 153 90 179 60 b 49 -135 115 6 49 -56 b 356 -319 49 -247 171 -319 b 711 -97 564 -319 711 -226 z m 368 304 b 221 446 278 304 221 361 b 368 588 221 531 278 588 b 515 446 460 588 515 531 b 368 304 515 361 460 304 z m 183 -117 b 339 3 183 -62 244 -17 l 458 -17 b 574 -108 535 -29 574 -61 b 368 -217 574 -172 493 -217 b 183 -117 250 -217 183 -181 z "},"ĝ":{"ha":757,"x_min":0,"x_max":0,"o":"m 482 769 l 586 769 l 424 1003 l 329 1003 l 160 769 l 264 769 l 371 907 z m 711 -97 b 501 90 711 3 646 63 l 351 118 b 288 161 306 126 288 140 b 376 206 288 183 315 199 b 653 446 539 208 653 306 b 594 597 653 507 631 558 l 713 592 l 726 697 l 486 668 b 368 688 451 681 411 688 b 83 446 199 688 83 589 b 246 226 83 343 147 261 b 153 128 181 204 153 169 b 226 39 153 90 179 60 b 49 -135 115 6 49 -56 b 356 -319 49 -247 171 -319 b 711 -97 564 -319 711 -226 z m 368 304 b 221 446 278 304 221 361 b 368 588 221 531 278 588 b 515 446 460 588 515 531 b 368 304 515 361 460 304 z m 183 -117 b 339 3 183 -62 244 -17 l 458 -17 b 574 -108 535 -29 574 -61 b 368 -217 574 -172 493 -217 b 183 -117 250 -217 183 -181 z "},"ģ":{"ha":757,"x_min":0,"x_max":0,"o":"m 483 994 l 400 994 l 313 763 l 432 763 z m 711 -97 b 501 90 711 3 646 63 l 351 118 b 288 161 306 126 288 140 b 376 206 288 183 315 199 b 653 446 539 208 653 306 b 594 597 653 507 631 558 l 713 592 l 726 697 l 486 668 b 368 688 451 681 411 688 b 83 446 199 688 83 589 b 246 226 83 343 147 261 b 153 128 181 204 153 169 b 226 39 153 90 179 60 b 49 -135 115 6 49 -56 b 356 -319 49 -247 171 -319 b 711 -97 564 -319 711 -226 z m 368 304 b 221 446 278 304 221 361 b 368 588 221 531 278 588 b 515 446 460 588 515 531 b 368 304 515 361 460 304 z m 183 -117 b 339 3 183 -62 244 -17 l 458 -17 b 574 -108 535 -29 574 -61 b 368 -217 574 -172 493 -217 b 183 -117 250 -217 183 -181 z "},"ġ":{"ha":757,"x_min":0,"x_max":0,"o":"m 372 790 b 458 879 421 790 458 831 b 372 965 458 928 421 965 b 285 879 324 965 285 928 b 372 790 285 831 324 790 z m 711 -97 b 501 90 711 3 646 63 l 351 118 b 288 161 306 126 288 140 b 376 206 288 183 315 199 b 653 446 539 208 653 306 b 594 597 653 507 631 558 l 713 592 l 726 697 l 486 668 b 368 688 451 681 411 688 b 83 446 199 688 83 589 b 246 226 83 343 147 261 b 153 128 181 204 153 169 b 226 39 153 90 179 60 b 49 -135 115 6 49 -56 b 356 -319 49 -247 171 -319 b 711 -97 564 -319 711 -226 z m 368 304 b 221 446 278 304 221 361 b 368 588 221 531 278 588 b 515 446 460 588 515 531 b 368 304 515 361 460 304 z m 183 -117 b 339 3 183 -62 244 -17 l 458 -17 b 574 -108 535 -29 574 -61 b 368 -217 574 -172 493 -217 b 183 -117 250 -217 183 -181 z "},"ħ":{"ha":824,"x_min":0,"x_max":0,"o":"m 708 453 b 510 688 708 600 633 688 b 258 531 413 688 319 625 l 258 785 l 425 785 l 425 872 l 258 872 l 258 1007 l 124 993 l 124 872 l 31 872 l 31 785 l 124 785 l 124 0 l 258 0 l 258 403 b 465 563 311 497 389 563 b 575 424 535 563 575 511 l 575 0 l 708 0 z "},"ĥ":{"ha":824,"x_min":0,"x_max":0,"o":"m 464 1097 l 568 1097 l 406 1329 l 311 1329 l 142 1097 l 246 1097 l 354 1235 z m 708 453 b 510 688 708 600 633 688 b 258 531 413 688 319 625 l 258 1007 l 124 993 l 124 0 l 258 0 l 258 403 b 465 563 311 497 389 563 b 575 424 535 563 575 511 l 575 0 l 708 0 z "},"í":{"ha":382,"x_min":0,"x_max":0,"o":"m 156 769 l 246 769 l 421 1003 l 285 1003 z m 258 681 l 124 667 l 124 0 l 258 0 z "},"î":{"ha":382,"x_min":0,"x_max":0,"o":"m 307 769 l 411 769 l 247 1003 l 154 1003 l -15 769 l 89 769 l 196 907 z m 258 681 l 124 667 l 124 0 l 258 0 z "},"ï":{"ha":382,"x_min":0,"x_max":0,"o":"m 68 804 b 149 885 113 804 149 842 b 68 964 149 928 113 964 b -11 885 24 964 -11 928 b 68 804 -11 842 24 804 z m 326 804 b 404 885 371 804 404 842 b 326 964 404 928 371 964 b 246 885 282 964 246 928 b 326 804 246 842 282 804 z m 258 681 l 124 667 l 124 0 l 258 0 z "},"ì":{"ha":382,"x_min":0,"x_max":0,"o":"m 240 769 l 111 1003 l -26 1003 l 149 769 z m 258 681 l 124 667 l 124 0 l 258 0 z "},"ĭ":{"ha":382,"x_min":0,"x_max":0,"o":"m 7 978 b 197 785 7 865 86 785 b 386 978 310 785 386 864 l 290 978 b 197 878 289 918 253 878 b 104 978 143 878 106 918 z m 258 681 l 124 667 l 124 0 l 258 0 z "},"ī":{"ha":382,"x_min":0,"x_max":0,"o":"m 369 825 l 369 911 l 25 911 l 25 825 z m 258 681 l 124 667 l 124 0 l 258 0 z "},"į":{"ha":382,"x_min":0,"x_max":0,"o":"m 190 814 b 278 901 239 814 278 853 b 190 988 278 950 239 988 b 104 901 143 988 104 950 b 190 814 104 853 143 814 z m 28 -178 b 172 -308 28 -254 90 -308 b 304 -265 226 -308 264 -294 l 263 -193 b 197 -217 242 -208 219 -217 b 133 -172 161 -217 138 -200 b 131 -157 131 -167 131 -162 b 156 -92 131 -135 139 -115 b 219 -32 168 -72 190 -54 l 258 0 l 258 681 l 124 667 l 124 -4 b 89 -40 111 -17 100 -28 b 28 -178 44 -89 28 -132 z "},"ĩ":{"ha":382,"x_min":0,"x_max":0,"o":"m 282 897 b 111 944 225 897 192 944 b -29 846 56 944 -1 906 l 29 800 b 111 854 50 833 79 854 b 288 807 169 854 206 807 b 424 906 340 807 393 847 l 365 951 b 282 897 343 919 313 897 z m 258 681 l 124 667 l 124 0 l 258 0 z "},"ĵ":{"ha":393,"x_min":0,"x_max":0,"o":"m 318 769 l 422 769 l 258 1003 l 165 1003 l -4 769 l 100 769 l 207 907 z m 269 681 l 135 667 l 135 -46 b 7 -196 135 -151 90 -196 l 39 -319 b 269 -46 190 -299 269 -206 z "},"ĳ":{"ha":771,"x_min":0,"x_max":0,"o":"m 190 814 b 278 901 239 814 278 853 b 190 988 278 950 239 988 b 104 901 143 988 104 950 b 190 814 104 853 143 814 z m 581 814 b 667 901 628 814 667 853 b 581 988 667 949 628 988 b 494 901 532 988 494 949 b 581 814 494 853 532 814 z m 258 681 l 124 667 l 124 0 l 258 0 z m 647 681 l 514 667 l 514 -46 b 386 -196 514 -151 469 -196 l 418 -319 b 647 -46 569 -299 647 -206 z "},"ķ":{"ha":750,"x_min":0,"x_max":0,"o":"m 258 1007 l 124 993 l 124 0 l 258 0 l 258 208 l 335 292 l 567 0 l 732 0 l 429 378 l 700 674 l 538 674 l 258 365 z m 292 -317 l 374 -317 l 463 -85 l 342 -85 z "},"ĺ":{"ha":382,"x_min":0,"x_max":0,"o":"m 157 1097 l 247 1097 l 422 1329 l 286 1329 z m 258 1007 l 124 993 l 124 0 l 258 0 z "},"ľ":{"ha":450,"x_min":0,"x_max":0,"o":"m 258 1007 l 124 993 l 124 0 l 258 0 z m 336 749 l 414 749 l 479 1000 l 368 1000 z "},"ļ":{"ha":382,"x_min":0,"x_max":0,"o":"m 258 1007 l 124 993 l 124 0 l 258 0 z m 88 -317 l 169 -317 l 258 -85 l 138 -85 z "},"ŀ":{"ha":557,"x_min":0,"x_max":0,"o":"m 258 1007 l 124 993 l 124 0 l 258 0 z m 378 511 b 468 418 378 460 418 418 b 561 511 521 418 561 460 b 468 601 561 561 521 601 b 378 511 418 601 378 561 z "},"ñ":{"ha":825,"x_min":0,"x_max":0,"o":"m 507 897 b 336 944 450 897 417 944 b 196 846 281 944 225 906 l 254 800 b 336 854 275 833 306 854 b 513 807 394 854 431 807 b 649 906 565 807 618 847 l 590 951 b 507 897 568 919 538 897 z m 233 681 l 100 667 l 125 439 l 125 0 l 260 0 l 260 403 b 467 563 313 497 390 563 b 576 424 536 563 576 511 l 576 0 l 710 0 l 710 453 b 511 688 710 600 635 688 b 253 521 410 688 314 622 z "},"ń":{"ha":825,"x_min":0,"x_max":0,"o":"m 381 769 l 472 769 l 647 1003 l 510 1003 z m 233 681 l 100 667 l 125 439 l 125 0 l 260 0 l 260 403 b 467 563 313 497 390 563 b 576 424 536 563 576 511 l 576 0 l 710 0 l 710 453 b 511 688 710 600 635 688 b 253 521 410 688 314 622 z "},"ň":{"ha":825,"x_min":0,"x_max":0,"o":"m 635 1003 l 531 1003 l 422 861 l 313 1003 l 208 1003 l 371 769 l 465 769 z m 233 681 l 100 667 l 125 439 l 125 0 l 260 0 l 260 403 b 467 563 313 497 390 563 b 576 424 536 563 576 511 l 576 0 l 710 0 l 710 453 b 511 688 710 600 635 688 b 253 521 410 688 314 622 z "},"ņ":{"ha":825,"x_min":0,"x_max":0,"o":"m 233 681 l 100 667 l 125 439 l 125 0 l 260 0 l 260 403 b 467 563 313 497 390 563 b 576 424 536 563 576 511 l 576 0 l 710 0 l 710 453 b 511 688 710 600 635 688 b 253 521 410 688 314 622 z m 314 -317 l 397 -317 l 485 -85 l 365 -85 z "},"ó":{"ha":792,"x_min":0,"x_max":0,"o":"m 354 769 l 444 769 l 619 1003 l 483 1003 z m 396 -14 b 718 336 589 -14 718 131 b 396 688 718 544 589 688 b 74 336 206 688 74 544 b 396 -14 74 131 204 -14 z m 396 106 b 213 336 285 106 213 200 b 396 567 213 475 285 567 b 579 336 507 567 579 475 b 396 106 579 200 507 106 z "},"ô":{"ha":792,"x_min":0,"x_max":0,"o":"m 506 769 l 610 769 l 446 1003 l 353 1003 l 183 769 l 288 769 l 394 907 z m 396 -14 b 718 336 589 -14 718 131 b 396 688 718 544 589 688 b 74 336 206 688 74 544 b 396 -14 74 131 204 -14 z m 396 106 b 213 336 285 106 213 200 b 396 567 213 475 285 567 b 579 336 507 567 579 475 b 396 106 579 200 507 106 z "},"ö":{"ha":792,"x_min":0,"x_max":0,"o":"m 267 804 b 347 885 311 804 347 842 b 267 964 347 928 311 964 b 188 885 222 964 188 928 b 267 804 188 842 222 804 z m 524 804 b 603 885 568 804 603 842 b 524 964 603 928 568 964 b 444 885 479 964 444 928 b 524 804 444 842 479 804 z m 396 -14 b 718 336 589 -14 718 131 b 396 688 718 544 589 688 b 74 336 206 688 74 544 b 396 -14 74 131 204 -14 z m 396 106 b 213 336 285 106 213 200 b 396 567 213 475 285 567 b 579 336 507 567 579 475 b 396 106 579 200 507 106 z "},"ò":{"ha":792,"x_min":0,"x_max":0,"o":"m 439 769 l 310 1003 l 174 1003 l 347 769 z m 396 -14 b 718 336 589 -14 718 131 b 396 688 718 544 589 688 b 74 336 206 688 74 544 b 396 -14 74 131 204 -14 z m 396 106 b 213 336 285 106 213 200 b 396 567 213 475 285 567 b 579 336 507 567 579 475 b 396 106 579 200 507 106 z "},"õ":{"ha":792,"x_min":0,"x_max":0,"o":"m 481 897 b 310 944 424 897 390 944 b 169 846 254 944 197 906 l 228 800 b 310 854 249 833 278 854 b 486 807 368 854 404 807 b 622 906 539 807 592 847 l 564 951 b 481 897 542 919 511 897 z m 396 -14 b 718 336 589 -14 718 131 b 396 688 718 544 589 688 b 74 336 206 688 74 544 b 396 -14 74 131 204 -14 z m 396 106 b 213 336 285 106 213 200 b 396 567 213 475 285 567 b 579 336 507 567 579 475 b 396 106 579 200 507 106 z "},"ŏ":{"ha":792,"x_min":0,"x_max":0,"o":"m 206 978 b 396 785 206 865 285 785 b 585 978 508 785 585 864 l 489 978 b 396 878 488 918 451 878 b 303 978 342 878 304 918 z m 396 -14 b 718 336 589 -14 718 131 b 396 688 718 544 589 688 b 74 336 206 688 74 544 b 396 -14 74 131 204 -14 z m 396 106 b 213 336 285 106 213 200 b 396 567 213 475 285 567 b 579 336 507 567 579 475 b 396 106 579 200 507 106 z "},"ő":{"ha":792,"x_min":0,"x_max":0,"o":"m 251 769 l 332 769 l 483 1003 l 354 1003 z m 460 769 l 540 769 l 693 1003 l 563 1003 z m 396 -14 b 718 336 589 -14 718 131 b 396 688 718 544 589 688 b 74 336 206 688 74 544 b 396 -14 74 131 204 -14 z m 396 106 b 213 336 285 106 213 200 b 396 567 213 475 285 567 b 579 336 507 567 579 475 b 396 106 579 200 507 106 z "},"ō":{"ha":792,"x_min":0,"x_max":0,"o":"m 568 825 l 568 911 l 224 911 l 224 825 z m 396 -14 b 718 336 589 -14 718 131 b 396 688 718 544 589 688 b 74 336 206 688 74 544 b 396 -14 74 131 204 -14 z m 396 106 b 213 336 285 106 213 200 b 396 567 213 475 285 567 b 579 336 507 567 579 475 b 396 106 579 200 507 106 z "},"ŕ":{"ha":542,"x_min":0,"x_max":0,"o":"m 275 769 l 365 769 l 540 1003 l 404 1003 z m 233 681 l 100 667 l 125 439 l 125 0 l 260 0 l 260 411 b 503 540 324 489 411 535 l 488 681 b 253 515 410 664 311 601 z "},"ř":{"ha":542,"x_min":0,"x_max":0,"o":"m 529 1003 l 425 1003 l 317 861 l 207 1003 l 103 1003 l 265 769 l 360 769 z m 233 681 l 100 667 l 125 439 l 125 0 l 260 0 l 260 411 b 503 540 324 489 411 535 l 488 681 b 253 515 410 664 311 601 z "},"ŗ":{"ha":542,"x_min":0,"x_max":0,"o":"m 233 681 l 100 667 l 125 439 l 125 0 l 260 0 l 260 411 b 503 540 324 489 411 535 l 488 681 b 253 515 410 664 311 601 z m 88 -317 l 171 -317 l 258 -85 l 139 -85 z "},"š":{"ha":657,"x_min":0,"x_max":0,"o":"m 540 1003 l 436 1003 l 329 861 l 218 1003 l 114 1003 l 278 769 l 371 769 z m 313 414 b 221 494 242 431 221 460 b 331 578 221 546 260 578 b 531 510 396 578 463 556 l 579 610 b 328 688 501 663 418 688 b 83 483 171 688 83 604 b 265 294 83 382 150 322 l 350 274 b 450 183 426 254 450 228 b 328 96 450 129 407 96 b 113 164 256 96 185 119 l 64 64 b 331 -14 146 8 242 -14 b 586 193 496 -14 586 69 b 399 393 586 303 515 364 z "},"ś":{"ha":657,"x_min":0,"x_max":0,"o":"m 285 769 l 375 769 l 551 1003 l 414 1003 z m 313 414 b 221 494 242 431 221 460 b 331 578 221 546 260 578 b 531 510 396 578 463 556 l 579 610 b 328 688 501 663 418 688 b 83 483 171 688 83 604 b 265 294 83 382 150 322 l 350 274 b 450 183 426 254 450 228 b 328 96 450 129 407 96 b 113 164 256 96 185 119 l 64 64 b 331 -14 146 8 242 -14 b 586 193 496 -14 586 69 b 399 393 586 303 515 364 z "},"ş":{"ha":657,"x_min":0,"x_max":0,"o":"m 313 414 b 221 494 242 431 221 460 b 331 578 221 546 260 578 b 531 510 396 578 463 556 l 579 610 b 328 688 501 663 418 688 b 83 483 171 688 83 604 b 265 294 83 382 150 322 l 350 274 b 450 183 426 254 450 228 b 328 96 450 129 407 96 b 113 164 256 96 185 119 l 64 64 b 296 -14 136 15 217 -8 l 260 -86 l 276 -119 l 328 -136 b 378 -182 365 -149 378 -160 b 314 -222 378 -207 354 -222 b 214 -199 282 -222 240 -211 l 182 -271 b 325 -299 225 -286 278 -299 b 468 -186 408 -299 468 -256 b 367 -76 468 -128 431 -97 l 335 -67 l 356 -14 b 586 193 506 -6 586 76 b 399 393 586 303 515 364 z "},"ŝ":{"ha":657,"x_min":0,"x_max":0,"o":"m 436 769 l 540 769 l 378 1003 l 283 1003 l 114 769 l 219 769 l 326 907 z m 313 414 b 221 494 242 431 221 460 b 331 578 221 546 260 578 b 531 510 396 578 463 556 l 579 610 b 328 688 501 663 418 688 b 83 483 171 688 83 604 b 265 294 83 382 150 322 l 350 274 b 450 183 426 254 450 228 b 328 96 450 129 407 96 b 113 164 256 96 185 119 l 64 64 b 331 -14 146 8 242 -14 b 586 193 496 -14 586 69 b 399 393 586 303 515 364 z "},"ș":{"ha":657,"x_min":0,"x_max":0,"o":"m 313 414 b 221 494 242 431 221 460 b 331 578 221 546 260 578 b 531 510 396 578 463 556 l 579 610 b 328 688 501 663 418 688 b 83 483 171 688 83 604 b 265 294 83 382 150 322 l 350 274 b 450 183 426 254 450 228 b 328 96 450 129 407 96 b 113 164 256 96 185 119 l 64 64 b 331 -14 146 8 242 -14 b 586 193 496 -14 586 69 b 399 393 586 303 515 364 z m 218 -317 l 301 -317 l 389 -85 l 269 -85 z "},"ŧ":{"ha":583,"x_min":0,"x_max":0,"o":"m 139 222 b 360 -14 139 57 226 -14 b 547 42 429 -14 492 3 l 496 147 b 381 110 454 119 415 110 b 274 232 314 110 274 149 l 274 342 l 463 342 l 463 428 l 274 428 l 274 557 l 501 557 l 515 674 l 274 674 l 274 853 l 149 840 l 142 674 l 31 674 l 31 557 l 139 557 l 139 428 l 44 428 l 44 342 l 139 342 z "},"ť":{"ha":583,"x_min":0,"x_max":0,"o":"m 363 792 l 440 792 l 506 1043 l 394 1043 z m 139 222 b 360 -14 139 57 226 -14 b 547 42 429 -14 492 3 l 496 147 b 381 110 454 119 415 110 b 274 232 314 110 274 149 l 274 557 l 501 557 l 515 674 l 274 674 l 274 853 l 149 840 l 142 674 l 31 674 l 31 557 l 139 557 z "},"ţ":{"ha":583,"x_min":0,"x_max":0,"o":"m 139 222 b 360 -14 139 57 226 -14 b 547 42 429 -14 492 3 l 496 147 b 381 110 454 119 415 110 b 274 232 314 110 274 149 l 274 557 l 501 557 l 515 674 l 274 674 l 274 853 l 149 840 l 142 674 l 31 674 l 31 557 l 139 557 z m 249 -317 l 332 -317 l 419 -85 l 300 -85 z "},"ț":{"ha":583,"x_min":0,"x_max":0,"o":"m 139 222 b 360 -14 139 57 226 -14 b 547 42 429 -14 492 3 l 496 147 b 381 110 454 119 415 110 b 274 232 314 110 274 149 l 274 557 l 501 557 l 515 674 l 274 674 l 274 853 l 149 840 l 142 674 l 31 674 l 31 557 l 139 557 z m 249 -317 l 332 -317 l 419 -85 l 300 -85 z "},"ú":{"ha":796,"x_min":0,"x_max":0,"o":"m 350 769 l 440 769 l 615 1003 l 479 1003 z m 563 -7 l 697 7 l 671 235 l 671 681 l 538 667 l 538 243 b 349 111 492 164 417 111 b 249 246 283 111 249 157 l 249 681 l 114 667 l 114 226 b 294 -14 114 68 176 -14 b 547 135 385 -14 485 44 z "},"û":{"ha":796,"x_min":0,"x_max":0,"o":"m 503 769 l 607 769 l 443 1003 l 350 1003 l 181 769 l 285 769 l 392 907 z m 563 -7 l 697 7 l 671 235 l 671 681 l 538 667 l 538 243 b 349 111 492 164 417 111 b 249 246 283 111 249 157 l 249 681 l 114 667 l 114 226 b 294 -14 114 68 176 -14 b 547 135 385 -14 485 44 z "},"ü":{"ha":796,"x_min":0,"x_max":0,"o":"m 264 807 b 344 888 308 807 344 843 b 264 967 344 931 308 967 b 185 888 219 967 185 931 b 264 807 185 843 219 807 z m 521 807 b 600 888 565 807 600 843 b 521 967 600 931 565 967 b 442 888 476 967 442 931 b 521 807 442 843 476 807 z m 563 -7 l 697 7 l 671 235 l 671 681 l 538 667 l 538 243 b 349 111 492 164 417 111 b 249 246 283 111 249 157 l 249 681 l 114 667 l 114 226 b 294 -14 114 68 176 -14 b 547 135 385 -14 485 44 z "},"ù":{"ha":796,"x_min":0,"x_max":0,"o":"m 436 769 l 307 1003 l 171 1003 l 344 769 z m 563 -7 l 697 7 l 671 235 l 671 681 l 538 667 l 538 243 b 349 111 492 164 417 111 b 249 246 283 111 249 157 l 249 681 l 114 667 l 114 226 b 294 -14 114 68 176 -14 b 547 135 385 -14 485 44 z "},"ŭ":{"ha":796,"x_min":0,"x_max":0,"o":"m 203 978 b 393 785 203 865 282 785 b 582 978 506 785 582 864 l 486 978 b 393 878 485 918 449 878 b 300 978 339 878 301 918 z m 563 -7 l 697 7 l 671 235 l 671 681 l 538 667 l 538 243 b 349 111 492 164 417 111 b 249 246 283 111 249 157 l 249 681 l 114 667 l 114 226 b 294 -14 114 68 176 -14 b 547 135 385 -14 485 44 z "},"ű":{"ha":796,"x_min":0,"x_max":0,"o":"m 249 769 l 329 769 l 481 1003 l 351 1003 z m 457 769 l 538 769 l 690 1003 l 560 1003 z m 563 -7 l 697 7 l 671 235 l 671 681 l 538 667 l 538 243 b 349 111 492 164 417 111 b 249 246 283 111 249 157 l 249 681 l 114 667 l 114 226 b 294 -14 114 68 176 -14 b 547 135 385 -14 485 44 z "},"ū":{"ha":796,"x_min":0,"x_max":0,"o":"m 565 825 l 565 911 l 221 911 l 221 825 z m 563 -7 l 697 7 l 671 235 l 671 681 l 538 667 l 538 243 b 349 111 492 164 417 111 b 249 246 283 111 249 157 l 249 681 l 114 667 l 114 226 b 294 -14 114 68 176 -14 b 547 135 385 -14 485 44 z "},"ų":{"ha":796,"x_min":0,"x_max":0,"o":"m 436 -178 b 571 -306 436 -249 494 -300 b 607 -307 583 -307 596 -307 b 718 -265 649 -304 683 -290 l 676 -192 b 611 -217 657 -207 635 -217 b 539 -156 567 -217 539 -193 b 597 -67 539 -125 558 -97 b 632 -40 608 -58 619 -50 l 697 7 l 675 199 l 671 269 l 671 681 l 538 667 l 538 243 b 349 111 492 164 417 111 b 250 224 289 111 256 150 b 249 246 249 231 249 238 l 249 681 l 114 667 l 114 226 b 294 -14 114 68 176 -14 b 547 135 385 -14 485 44 l 563 -1 b 511 -40 544 -14 526 -28 b 436 -178 456 -85 436 -132 z "},"ů":{"ha":796,"x_min":0,"x_max":0,"o":"m 394 746 b 551 897 481 746 551 810 b 393 1049 551 983 481 1049 b 236 897 307 1049 236 983 b 394 746 236 810 307 746 z m 393 818 b 318 897 350 818 318 851 b 393 975 318 942 350 975 b 468 897 436 975 468 942 b 393 818 468 853 436 818 z m 563 -7 l 697 7 l 671 235 l 671 681 l 538 667 l 538 243 b 349 111 492 164 417 111 b 249 246 283 111 249 157 l 249 681 l 114 667 l 114 226 b 294 -14 114 68 176 -14 b 547 135 385 -14 485 44 z "},"ũ":{"ha":796,"x_min":0,"x_max":0,"o":"m 479 897 b 308 944 421 897 389 944 b 168 846 251 944 196 906 l 225 800 b 308 854 247 833 276 854 b 483 807 367 854 403 807 b 619 906 538 807 590 847 l 563 951 b 479 897 540 919 508 897 z m 563 -7 l 697 7 l 671 235 l 671 681 l 538 667 l 538 243 b 349 111 492 164 417 111 b 249 246 283 111 249 157 l 249 681 l 114 667 l 114 226 b 294 -14 114 68 176 -14 b 547 135 385 -14 485 44 z "},"ẃ":{"ha":1081,"x_min":0,"x_max":0,"o":"m 499 769 l 589 769 l 764 1003 l 628 1003 z m 849 7 l 850 7 l 1038 674 l 894 674 l 772 181 l 607 674 l 475 674 l 310 182 l 188 674 l 44 674 l 236 -7 l 369 7 l 540 500 l 717 -7 z "},"ŵ":{"ha":1081,"x_min":0,"x_max":0,"o":"m 650 769 l 754 769 l 592 1003 l 497 1003 l 328 769 l 432 769 l 540 907 z m 849 7 l 850 7 l 1038 674 l 894 674 l 772 181 l 607 674 l 475 674 l 310 182 l 188 674 l 44 674 l 236 -7 l 369 7 l 540 500 l 717 -7 z "},"ẅ":{"ha":1081,"x_min":0,"x_max":0,"o":"m 411 804 b 492 885 456 804 492 842 b 411 964 492 928 456 964 b 332 885 367 964 332 928 b 411 804 332 842 367 804 z m 668 804 b 747 885 714 804 747 842 b 668 964 747 928 714 964 b 589 885 625 964 589 928 b 668 804 589 842 625 804 z m 849 7 l 850 7 l 1038 674 l 894 674 l 772 181 l 607 674 l 475 674 l 310 182 l 188 674 l 44 674 l 236 -7 l 369 7 l 540 500 l 717 -7 z "},"ẁ":{"ha":1081,"x_min":0,"x_max":0,"o":"m 582 769 l 454 1003 l 317 1003 l 492 769 z m 849 7 l 850 7 l 1038 674 l 894 674 l 772 181 l 607 674 l 475 674 l 310 182 l 188 674 l 44 674 l 236 -7 l 369 7 l 540 500 l 717 -7 z "},"ý":{"ha":706,"x_min":0,"x_max":0,"o":"m 311 769 l 401 769 l 576 1003 l 440 1003 z m 58 -196 l 90 -319 b 393 -67 251 -304 326 -240 l 457 101 l 679 674 l 540 674 l 353 167 l 171 674 l 26 674 l 288 -4 l 267 -57 b 58 -196 226 -160 178 -190 z "},"ÿ":{"ha":706,"x_min":0,"x_max":0,"o":"m 225 804 b 306 885 269 804 306 842 b 225 964 306 928 269 964 b 146 885 182 964 146 928 b 225 804 146 842 182 804 z m 483 804 b 563 885 528 804 563 842 b 483 964 563 928 528 964 b 403 885 439 964 403 928 b 483 804 403 842 439 804 z m 58 -196 l 90 -319 b 393 -67 251 -304 326 -240 l 457 101 l 679 674 l 540 674 l 353 167 l 171 674 l 26 674 l 288 -4 l 267 -57 b 58 -196 226 -160 178 -190 z "},"ŷ":{"ha":706,"x_min":0,"x_max":0,"o":"m 464 769 l 568 769 l 404 1003 l 311 1003 l 142 769 l 246 769 l 353 907 z m 58 -196 l 90 -319 b 393 -67 251 -304 326 -240 l 457 101 l 679 674 l 540 674 l 353 167 l 171 674 l 26 674 l 288 -4 l 267 -57 b 58 -196 226 -160 178 -190 z "},"ỳ":{"ha":706,"x_min":0,"x_max":0,"o":"m 397 769 l 268 1003 l 132 1003 l 306 769 z m 58 -196 l 90 -319 b 393 -67 251 -304 326 -240 l 457 101 l 679 674 l 540 674 l 353 167 l 171 674 l 26 674 l 288 -4 l 267 -57 b 58 -196 226 -160 178 -190 z "},"ž":{"ha":668,"x_min":0,"x_max":0,"o":"m 560 1003 l 456 1003 l 349 861 l 238 1003 l 133 1003 l 297 769 l 390 769 z m 596 0 l 596 117 l 229 117 l 588 578 l 567 674 l 81 674 l 81 557 l 411 557 l 53 96 l 74 0 z "},"ź":{"ha":668,"x_min":0,"x_max":0,"o":"m 303 769 l 394 769 l 569 1003 l 433 1003 z m 596 0 l 596 117 l 229 117 l 588 578 l 567 674 l 81 674 l 81 557 l 411 557 l 53 96 l 74 0 z "},"ż":{"ha":668,"x_min":0,"x_max":0,"o":"m 347 790 b 433 879 396 790 433 831 b 347 965 433 928 396 965 b 261 879 299 965 261 928 b 347 790 261 831 299 790 z m 596 0 l 596 117 l 229 117 l 588 578 l 567 674 l 81 674 l 81 557 l 411 557 l 53 96 l 74 0 z "},"´":{"ha":694,"x_min":0,"x_max":0,"o":"m 306 788 l 397 788 l 572 1021 l 436 1021 z "},"`":{"ha":694,"x_min":0,"x_max":0,"o":"m 390 788 l 261 1021 l 125 1021 l 299 788 z "},"ˆ":{"ha":694,"x_min":0,"x_max":0,"o":"m 456 788 l 560 788 l 397 1021 l 303 1021 l 135 788 l 239 788 l 346 925 z "},"ˇ":{"ha":697,"x_min":0,"x_max":0,"o":"m 561 1021 l 457 1021 l 350 879 l 240 1021 l 136 1021 l 299 788 l 393 788 z "},"˜":{"ha":694,"x_min":0,"x_max":0,"o":"m 433 915 b 263 963 375 915 343 963 b 122 864 206 963 150 924 l 179 818 b 263 872 201 851 231 872 b 438 825 321 872 357 825 b 574 924 492 825 544 865 l 517 969 b 433 915 494 936 463 915 z "},"¨":{"ha":688,"x_min":0,"x_max":0,"o":"m 215 822 b 296 903 260 822 296 858 b 215 982 296 946 260 982 b 136 903 171 982 136 946 b 215 822 136 858 171 822 z m 472 822 b 551 903 517 822 551 858 b 472 982 551 946 517 982 b 393 903 429 982 393 946 b 472 822 393 858 429 822 z "},"˚":{"ha":694,"x_min":0,"x_max":0,"o":"m 349 754 b 506 906 435 754 506 818 b 347 1058 506 993 435 1058 b 190 906 261 1058 190 993 b 349 754 190 818 261 754 z m 349 828 b 272 907 304 828 272 861 b 347 985 272 951 304 985 b 424 907 390 985 424 951 b 349 828 424 863 392 828 z "},"¸":{"ha":694,"x_min":0,"x_max":0,"o":"m 375 0 l 317 0 l 274 -86 l 290 -119 l 343 -136 b 393 -182 379 -149 393 -160 b 329 -222 393 -207 369 -222 b 228 -199 297 -222 256 -211 l 196 -271 b 339 -299 239 -286 293 -299 b 483 -186 424 -299 483 -256 b 382 -76 483 -128 446 -97 l 350 -67 z "},"˝":{"ha":694,"x_min":0,"x_max":0,"o":"m 204 788 l 285 788 l 436 1021 l 307 1021 z m 413 788 l 493 788 l 644 1021 l 515 1021 z "},"˘":{"ha":694,"x_min":0,"x_max":0,"o":"m 158 996 b 349 803 158 883 236 803 b 536 996 460 803 536 882 l 440 996 b 349 896 439 936 403 896 b 254 996 293 896 256 936 z "},"¯":{"ha":694,"x_min":0,"x_max":0,"o":"m 519 843 l 519 929 l 175 929 l 175 843 z "},"˙":{"ha":694,"x_min":0,"x_max":0,"o":"m 349 808 b 435 897 397 808 435 849 b 349 983 435 944 397 983 b 261 897 300 983 261 944 b 349 808 261 849 300 808 z "},"·":{"ha":208,"x_min":0,"x_max":0,"o":"m 13 357 b 104 264 13 306 53 264 b 196 357 156 264 196 306 b 104 447 196 407 156 447 b 13 357 53 447 13 407 z "},"˛":{"ha":418,"x_min":0,"x_max":0,"o":"m 69 -178 b 221 -308 69 -254 136 -308 b 353 -265 275 -308 313 -294 l 311 -192 b 246 -217 290 -207 268 -217 b 172 -156 201 -217 172 -193 b 253 -57 172 -121 199 -93 l 331 0 l 225 17 l 167 -25 b 69 -178 94 -74 69 -126 z "},"̦":{"ha":694,"x_min":0,"x_max":0,"o":"m 236 -317 l 319 -317 l 407 -85 l 288 -85 z "},".":{"ha":328,"x_min":0,"x_max":0,"o":"m 72 79 b 164 -12 72 28 113 -12 b 256 79 215 -12 256 28 b 164 169 256 129 215 169 b 72 79 113 169 72 129 z "},",":{"ha":338,"x_min":0,"x_max":0,"o":"m 57 -193 l 175 -193 l 264 160 l 113 160 z "},":":{"ha":331,"x_min":0,"x_max":0,"o":"m 74 596 b 165 504 74 546 114 504 b 257 596 217 504 257 546 b 165 688 257 646 217 688 b 74 596 114 688 74 646 z m 74 79 b 165 -12 74 28 114 -12 b 257 79 217 -12 257 28 b 165 169 257 129 217 169 b 74 79 114 169 74 129 z "},";":{"ha":340,"x_min":0,"x_max":0,"o":"m 85 596 b 175 504 85 546 125 504 b 268 596 228 504 268 546 b 175 688 268 646 228 688 b 85 596 125 688 85 646 z m 44 -193 l 163 -193 l 251 160 l 100 160 z "},"…":{"ha":1063,"x_min":0,"x_max":0,"o":"m 69 79 b 161 -12 69 28 110 -12 b 253 79 213 -12 253 28 b 161 169 253 129 213 169 b 69 79 110 169 69 129 z m 439 79 b 531 -12 439 28 481 -12 b 624 79 582 -12 624 28 b 531 169 624 129 582 169 b 439 79 481 169 439 129 z m 810 79 b 900 -12 810 28 850 -12 b 993 79 953 -12 993 28 b 900 169 993 129 953 169 b 810 79 850 169 810 129 z "},"?":{"ha":683,"x_min":0,"x_max":0,"o":"m 494 519 b 619 751 558 576 619 639 b 314 1014 619 910 492 1014 b 21 907 194 1014 100 972 l 86 807 b 310 894 154 863 235 894 b 481 744 411 894 481 836 b 392 590 481 676 442 635 l 358 560 b 233 336 275 486 233 439 l 233 299 l 368 299 l 368 338 b 457 488 368 393 392 428 z m 299 -12 b 392 79 350 -12 392 28 b 299 169 392 129 350 169 b 207 79 249 169 207 129 b 299 -12 207 28 249 -12 z "},"!":{"ha":451,"x_min":0,"x_max":0,"o":"m 293 1000 l 158 1000 l 158 299 l 293 299 z m 133 79 b 225 -12 133 28 175 -12 b 318 79 276 -12 318 28 b 225 169 318 129 276 169 b 133 79 175 169 133 129 z "},"¿":{"ha":669,"x_min":0,"x_max":0,"o":"m 378 688 b 285 594 326 688 285 646 b 378 504 285 544 326 504 b 469 594 428 504 469 544 b 378 688 469 646 428 688 z m 182 154 b 57 -78 118 97 57 35 b 363 -340 57 -236 185 -340 b 656 -233 482 -340 576 -299 l 590 -133 b 367 -219 522 -189 442 -219 b 196 -71 264 -219 196 -162 b 285 83 196 -3 235 39 l 318 114 b 443 338 401 189 443 236 l 443 376 l 308 376 l 308 338 b 218 186 308 281 285 246 z "},"¡":{"ha":439,"x_min":0,"x_max":0,"o":"m 219 688 b 128 594 168 688 128 646 b 219 504 128 544 168 504 b 311 594 271 504 311 544 b 219 688 311 646 271 688 z m 151 -326 l 286 -326 l 286 376 l 151 376 z "},"(":{"ha":526,"x_min":0,"x_max":0,"o":"m 101 417 b 435 -206 101 157 208 -68 l 513 -108 b 240 417 324 17 240 197 b 510 940 240 635 322 814 l 432 1038 b 101 417 208 901 101 675 z "},")":{"ha":526,"x_min":0,"x_max":0,"o":"m 425 417 b 94 1038 425 675 318 901 l 17 940 b 286 417 204 814 286 635 b 14 -108 286 197 201 17 l 92 -206 b 425 417 318 -68 425 157 z "},"{":{"ha":611,"x_min":0,"x_max":0,"o":"m 342 188 b 249 418 371 303 324 379 b 342 650 324 457 371 535 l 315 753 b 421 918 288 864 335 918 b 550 872 457 918 500 910 l 601 976 b 401 1042 540 1025 468 1042 b 181 746 243 1042 131 944 l 210 631 b 90 479 235 532 167 479 l 22 479 l 22 357 l 90 357 b 210 207 167 357 235 306 l 181 92 b 401 -204 131 -107 243 -204 b 601 -139 468 -204 540 -187 l 550 -35 b 421 -81 500 -72 457 -81 b 315 85 335 -81 288 -26 z "},"}":{"ha":611,"x_min":0,"x_max":0,"o":"m 271 188 l 297 85 b 192 -81 325 -26 278 -81 b 63 -35 154 -81 111 -72 l 11 -139 b 210 -204 72 -187 143 -204 b 431 92 368 -204 481 -107 l 401 207 b 521 357 378 306 446 357 l 589 357 l 589 479 l 521 479 b 401 631 446 479 378 532 l 431 746 b 210 1042 481 944 368 1042 b 11 976 143 1042 72 1025 l 63 872 b 192 918 111 910 154 918 b 297 753 278 918 325 864 l 271 650 b 364 418 242 535 289 457 b 271 188 289 379 242 303 z "},"[":{"ha":536,"x_min":0,"x_max":0,"o":"m 515 -74 l 285 -74 l 285 897 l 511 897 l 511 1014 l 150 1014 l 150 -190 l 515 -190 z "},"]":{"ha":536,"x_min":0,"x_max":0,"o":"m 21 -74 l 21 -190 l 385 -190 l 385 1014 l 21 1014 l 21 897 l 251 897 l 251 -74 z "},"/":{"ha":565,"x_min":0,"x_max":0,"o":"m 538 1028 l 403 1028 l 28 -190 l 163 -190 z "},"\\":{"ha":565,"x_min":0,"x_max":0,"o":"m 28 1028 l 403 -190 l 538 -190 l 163 1028 z "},"_":{"ha":636,"x_min":0,"x_max":0,"o":"m 608 -237 l 608 -121 l 28 -121 l 28 -237 z "},"-":{"ha":469,"x_min":0,"x_max":0,"o":"m 442 350 l 442 467 l 28 467 l 28 350 z "},"­":{"ha":0,"x_min":0,"x_max":0,"o":""},"–":{"ha":694,"x_min":0,"x_max":0,"o":"m 667 350 l 667 467 l 28 467 l 28 350 z "},"—":{"ha":1389,"x_min":0,"x_max":0,"o":"m 1361 350 l 1361 467 l 28 467 l 28 350 z "},"¦":{"ha":454,"x_min":0,"x_max":0,"o":"m 160 1000 l 160 426 l 294 426 l 294 1000 z m 160 240 l 160 -333 l 294 -333 l 294 240 z "},"|":{"ha":454,"x_min":0,"x_max":0,"o":"m 294 1000 l 160 1000 l 160 -333 l 294 -333 z "},"«":{"ha":921,"x_min":0,"x_max":0,"o":"m 458 182 l 181 388 l 457 593 l 408 690 l 68 451 l 68 325 l 410 85 z m 853 182 l 575 388 l 851 593 l 803 690 l 464 451 l 464 325 l 804 85 z "},"»":{"ha":921,"x_min":0,"x_max":0,"o":"m 68 592 l 346 388 l 68 179 l 117 85 l 457 324 l 457 450 l 115 690 z m 463 592 l 740 388 l 464 179 l 513 85 l 851 324 l 851 450 l 511 690 z "},"‹":{"ha":525,"x_min":0,"x_max":0,"o":"m 458 182 l 181 388 l 457 593 l 408 690 l 68 451 l 68 325 l 410 85 z "},"›":{"ha":525,"x_min":0,"x_max":0,"o":"m 68 592 l 346 388 l 68 179 l 117 85 l 457 324 l 457 450 l 115 690 z "},"‚":{"ha":338,"x_min":0,"x_max":0,"o":"m 57 -165 l 175 -165 l 264 160 l 113 160 z "},"„":{"ha":610,"x_min":0,"x_max":0,"o":"m 57 -165 l 175 -165 l 264 160 l 113 160 z m 329 -165 l 449 -165 l 538 160 l 385 160 z "},"‘":{"ha":338,"x_min":0,"x_max":0,"o":"m 272 1000 l 153 1000 l 64 675 l 217 675 z "},"“":{"ha":610,"x_min":0,"x_max":0,"o":"m 544 1000 l 425 1000 l 336 675 l 489 675 z m 272 1000 l 153 1000 l 64 675 l 217 675 z "},"’":{"ha":338,"x_min":0,"x_max":0,"o":"m 64 675 l 183 675 l 272 1000 l 119 1000 z "},"”":{"ha":610,"x_min":0,"x_max":0,"o":"m 64 675 l 183 675 l 272 1000 l 119 1000 z m 336 675 l 456 675 l 544 1000 l 392 1000 z "},"'":{"ha":283,"x_min":0,"x_max":0,"o":"m 82 675 l 200 675 l 218 1000 l 65 1000 z "},"\"":{"ha":551,"x_min":0,"x_max":0,"o":"m 82 675 l 200 675 l 218 1000 l 65 1000 z m 350 675 l 468 675 l 486 1000 l 333 1000 z "},"•":{"ha":388,"x_min":0,"x_max":0,"o":"m 193 346 b 310 464 258 346 310 399 b 193 579 310 528 258 579 b 76 464 128 579 76 528 b 193 346 76 399 128 346 z "},"&":{"ha":981,"x_min":0,"x_max":0,"o":"m 783 0 l 958 0 l 760 200 b 879 501 817 281 857 383 l 772 533 b 683 282 756 435 724 350 l 472 492 l 460 506 l 458 506 b 486 524 468 511 478 518 b 660 779 608 601 660 690 b 444 985 660 896 567 976 b 401 985 431 986 415 986 b 164 790 276 979 179 904 b 163 726 161 769 160 749 b 269 519 169 660 203 593 b 250 508 263 517 256 513 b 63 261 132 436 69 360 b 63 225 61 250 61 238 b 379 -14 72 81 203 -14 b 671 111 489 -14 590 31 z m 290 761 b 418 879 290 835 346 879 b 538 768 483 879 538 838 b 407 592 538 710 501 647 b 389 581 400 588 394 583 b 290 761 310 663 290 708 z m 200 257 b 326 433 200 328 238 376 b 342 444 332 438 336 442 l 593 190 b 442 104 550 146 499 115 b 389 100 425 101 407 100 b 200 257 281 104 200 164 z "},"¶":{"ha":864,"x_min":0,"x_max":0,"o":"m 58 678 b 372 399 58 518 188 399 l 435 399 l 435 -190 l 524 -190 l 524 879 l 625 879 l 625 -190 l 714 -190 l 714 972 l 372 972 b 58 678 188 972 58 847 z "},"†":{"ha":706,"x_min":0,"x_max":0,"o":"m 633 613 l 649 729 l 419 729 l 419 1000 l 286 1000 l 286 729 l 57 729 l 72 613 l 286 613 l 286 -190 l 419 -190 l 419 613 z "},"‡":{"ha":706,"x_min":0,"x_max":0,"o":"m 633 251 l 649 368 l 419 368 l 419 632 l 633 632 l 649 749 l 419 749 l 419 1000 l 286 1000 l 286 749 l 57 749 l 72 632 l 286 632 l 286 368 l 57 368 l 72 251 l 286 251 l 286 -190 l 419 -190 l 419 251 z "},"§":{"ha":756,"x_min":0,"x_max":0,"o":"m 394 911 b 588 844 457 911 521 890 l 636 944 b 385 1021 556 997 471 1021 b 142 838 240 1021 149 947 b 140 825 140 833 140 829 b 246 643 140 743 182 688 b 101 486 171 610 111 558 b 103 436 100 469 100 453 b 238 269 113 368 158 314 l 326 219 b 390 182 351 206 372 193 b 479 71 440 151 479 121 b 360 -14 479 19 433 -14 b 168 53 299 -14 235 7 l 119 -47 b 371 -124 200 -100 283 -124 b 614 60 515 -124 607 -50 b 615 72 615 64 615 68 b 510 254 615 154 574 210 b 654 411 585 288 644 339 b 653 461 656 428 656 444 b 517 628 643 529 597 583 l 429 678 b 365 715 404 692 383 704 b 276 826 315 746 276 776 b 394 911 276 878 322 911 z m 226 483 b 326 596 226 538 272 575 b 347 585 333 592 340 589 b 454 518 385 563 421 540 b 529 414 497 490 529 458 b 428 301 529 360 483 322 b 408 313 422 306 415 308 b 301 379 371 335 335 357 b 226 483 258 407 226 439 z "},"*":{"ha":444,"x_min":0,"x_max":0,"o":"m 376 629 l 419 706 l 292 769 l 419 833 l 376 908 l 256 826 l 267 972 l 179 972 l 190 828 l 68 908 l 25 833 l 154 769 l 25 706 l 68 629 l 190 710 l 179 565 l 267 565 l 256 711 z "},"™":{"ha":1119,"x_min":0,"x_max":0,"o":"m 415 894 l 403 972 l 40 972 l 28 894 l 179 894 l 179 486 l 264 486 l 264 894 z m 710 486 l 790 486 l 932 806 l 938 635 l 944 486 l 1029 486 l 1006 972 l 924 972 l 750 578 l 576 972 l 494 972 l 469 486 l 554 486 l 561 636 l 567 811 z "},"®":{"ha":1215,"x_min":0,"x_max":0,"o":"m 608 989 b 107 486 329 989 107 769 b 608 -17 107 203 329 -17 b 1110 486 888 -17 1110 203 b 608 989 1110 769 888 989 z m 608 935 b 1051 486 858 935 1051 736 b 608 38 1051 235 858 38 b 164 486 357 38 164 236 b 608 935 164 738 357 935 z m 847 189 l 711 417 b 839 593 790 443 839 507 b 632 782 839 703 756 782 l 406 782 l 406 189 l 511 189 l 511 399 l 606 399 l 731 189 z m 624 689 b 729 593 688 689 729 647 b 624 492 729 532 688 492 l 511 492 l 511 689 z "},"©":{"ha":1215,"x_min":0,"x_max":0,"o":"m 608 989 b 107 486 329 989 107 769 b 608 -17 107 203 329 -17 b 1110 486 888 -17 1110 203 b 608 989 1110 769 888 989 z m 608 935 b 1051 486 858 935 1051 736 b 608 38 1051 235 858 38 b 164 486 357 38 164 236 b 608 935 164 738 357 935 z m 322 482 b 610 178 322 301 439 178 b 807 246 688 178 758 203 l 760 331 b 613 279 724 300 671 279 b 433 482 506 279 433 364 b 613 686 433 603 506 686 b 760 635 671 686 722 667 l 807 721 b 613 789 758 763 690 789 b 322 482 440 789 322 664 z "},"@":{"ha":1275,"x_min":0,"x_max":0,"o":"m 335 228 b 499 -17 335 83 404 -4 b 542 -18 513 -19 526 -19 b 739 115 608 -10 672 35 b 921 -19 763 38 833 -19 b 1211 356 1072 -19 1200 114 b 1213 424 1213 378 1213 401 b 683 886 1199 703 972 886 b 57 276 317 886 57 638 b 640 -290 57 -56 290 -290 b 957 -229 742 -290 840 -274 l 940 -135 b 643 -199 833 -181 740 -199 b 158 282 351 -199 158 -11 b 676 796 158 583 375 796 b 1113 388 926 796 1113 635 b 926 75 1113 188 1026 75 b 835 192 869 75 833 124 b 838 221 835 201 835 211 l 896 558 b 719 611 840 590 779 607 b 669 611 703 613 686 613 b 335 228 474 597 335 429 z m 447 226 b 669 517 447 375 540 504 b 724 514 686 518 706 517 b 778 497 742 511 760 506 l 731 229 l 726 206 b 543 76 661 119 596 76 b 447 226 485 76 447 125 z "},"ª":{"ha":535,"x_min":0,"x_max":0,"o":"m 53 590 b 181 469 53 518 104 469 b 344 549 236 469 299 500 b 475 469 358 497 397 475 l 497 571 b 439 628 456 575 439 589 l 439 807 b 253 986 433 922 369 986 b 76 921 189 986 129 965 l 110 835 b 233 888 146 868 190 888 b 333 800 293 888 328 857 b 335 775 335 793 335 783 b 53 590 129 724 53 672 z m 164 599 b 335 701 164 643 214 672 l 335 617 b 218 553 301 578 256 553 b 164 599 185 553 164 569 z "},"º":{"ha":575,"x_min":0,"x_max":0,"o":"m 288 469 b 526 729 431 469 526 576 b 288 986 526 882 429 986 b 49 729 147 986 49 882 b 288 469 49 576 146 469 z m 288 568 b 161 729 213 568 161 633 b 288 888 161 824 213 888 b 414 729 364 888 414 824 b 288 568 414 633 364 568 z "},"#":{"ha":1011,"x_min":0,"x_max":0,"o":"m 883 265 l 899 369 l 701 369 l 767 626 l 946 626 l 960 731 l 793 731 l 856 972 l 732 972 l 671 731 l 458 731 l 521 972 l 397 972 l 336 731 l 128 731 l 113 626 l 308 626 l 244 369 l 65 369 l 51 265 l 218 265 l 150 0 l 272 0 l 340 265 l 553 265 l 485 0 l 607 0 l 675 265 z m 367 369 l 432 626 l 644 626 l 579 369 z "},"€":{"ha":943,"x_min":0,"x_max":0,"o":"m 136 486 b 139 431 136 467 136 449 l 32 431 l 32 338 l 154 338 b 579 -14 204 124 363 -14 b 871 101 693 -14 793 26 l 792 199 b 583 111 736 142 664 111 b 304 338 446 111 344 199 l 625 338 l 644 431 l 279 431 b 276 486 278 449 276 467 b 279 542 276 506 278 524 l 669 542 l 689 635 l 304 635 b 583 861 343 775 446 861 b 792 774 664 861 735 832 l 871 871 b 579 986 793 944 693 986 b 154 635 363 986 203 849 l 32 635 l 32 542 l 139 542 b 136 486 136 524 136 506 z "},"¥":{"ha":922,"x_min":0,"x_max":0,"o":"m 817 204 l 817 301 l 535 301 l 535 419 l 817 419 l 817 515 l 589 515 l 897 972 l 735 972 l 464 567 l 190 972 l 24 972 l 333 515 l 107 515 l 107 419 l 390 419 l 390 301 l 107 301 l 107 204 l 390 204 l 390 0 l 535 0 l 535 204 z "},"£":{"ha":774,"x_min":0,"x_max":0,"o":"m 563 447 l 582 543 l 313 543 b 269 719 282 628 269 679 b 440 865 269 806 338 865 b 646 794 522 865 593 840 l 701 896 b 426 986 638 951 538 986 b 129 753 260 986 138 892 b 129 722 129 743 128 733 b 172 543 131 674 147 614 l 68 543 l 68 447 l 208 447 b 222 410 213 435 218 422 b 263 264 244 350 260 304 b 264 250 264 260 264 254 b 68 114 264 160 196 114 l 68 0 l 694 0 l 719 125 l 326 125 b 381 229 361 149 378 185 b 379 335 386 261 386 296 b 361 408 375 358 369 383 b 349 447 358 422 353 435 z "},"₹":{"ha":872,"x_min":0,"x_max":0,"o":"m 490 0 l 679 0 l 275 363 b 333 364 299 363 311 363 b 618 625 489 375 600 475 l 782 625 l 796 721 l 617 721 b 517 876 607 790 571 843 l 782 876 l 796 972 l 97 972 l 97 876 l 257 876 b 461 721 369 876 446 817 l 97 721 l 97 625 l 463 625 b 261 457 450 522 378 457 l 97 457 l 97 360 z "},"$":{"ha":843,"x_min":0,"x_max":0,"o":"m 746 264 b 497 547 746 403 668 490 l 369 589 b 239 722 278 619 239 663 b 411 854 239 811 313 854 b 686 775 500 854 592 831 l 732 899 b 488 981 651 949 568 971 l 488 1118 l 357 1118 l 357 982 b 90 710 190 968 90 863 b 332 446 90 583 169 499 l 461 406 b 599 258 556 374 599 325 b 417 118 599 164 522 118 b 122 201 322 118 219 146 l 75 79 b 357 -11 169 21 264 -4 l 357 -147 l 481 -147 l 481 -10 b 746 264 647 10 746 114 z "},"¢":{"ha":689,"x_min":0,"x_max":0,"o":"m 328 808 l 328 681 b 74 336 171 656 74 522 b 328 -8 74 151 171 18 l 328 -135 l 444 -135 l 444 -8 b 638 92 521 1 585 36 l 568 179 b 396 106 519 132 463 106 b 211 329 272 106 211 206 l 211 343 b 397 567 211 468 272 567 b 567 494 463 567 519 540 l 636 583 b 444 681 582 639 519 672 l 444 808 z "},"ƒ":{"ha":651,"x_min":0,"x_max":0,"o":"m 557 515 l 572 611 l 415 611 l 439 754 b 576 890 454 850 503 890 b 642 879 597 890 617 888 l 657 1000 b 564 1014 621 1011 596 1014 b 304 754 418 1014 333 939 l 281 611 l 151 611 l 151 515 l 265 515 l 213 192 b 74 56 197 96 149 56 b 10 67 53 56 33 58 l -6 -54 b 88 -68 29 -65 56 -68 b 347 192 232 -68 317 7 l 400 515 z "},"¤":{"ha":594,"x_min":0,"x_max":0,"o":"m 108 281 l 189 361 b 297 332 219 342 257 332 b 406 361 339 332 375 342 l 486 281 l 553 347 l 471 429 b 499 535 489 458 499 494 b 471 642 499 575 489 611 l 553 724 l 486 790 l 404 708 b 297 738 375 728 339 738 b 190 708 257 738 219 728 l 108 790 l 42 724 l 124 642 b 94 535 104 613 94 575 b 122 428 94 494 104 458 l 42 347 z m 296 421 b 186 535 231 421 186 465 b 296 649 186 604 231 649 b 407 535 363 649 407 604 b 296 421 407 465 363 421 z "},"°":{"ha":583,"x_min":0,"x_max":0,"o":"m 40 740 b 293 494 40 597 146 494 b 543 740 436 494 543 597 b 293 986 543 883 436 986 b 40 740 146 986 40 883 z m 435 740 b 292 590 435 651 374 590 b 149 740 210 590 149 651 b 292 890 149 829 210 890 b 435 740 374 890 435 829 z "},"%":{"ha":1071,"x_min":0,"x_max":0,"o":"m 275 536 b 494 761 403 536 494 628 b 275 986 494 894 403 986 b 50 761 142 986 50 894 b 275 536 50 628 142 536 z m 838 972 l 110 0 l 232 0 l 960 972 z m 274 628 b 151 761 200 628 151 681 b 274 894 151 842 200 894 b 394 761 346 894 394 842 b 274 628 394 681 346 628 z m 801 -14 b 1021 211 929 -14 1021 78 b 801 436 1021 344 929 436 b 576 211 668 436 576 344 b 801 -14 576 78 668 -14 z m 800 78 b 678 211 726 78 678 131 b 800 344 678 292 726 344 b 921 211 872 344 921 292 b 800 78 921 131 872 78 z "},"‰":{"ha":1576,"x_min":0,"x_max":0,"o":"m 275 536 b 494 761 403 536 494 628 b 275 986 494 894 403 986 b 50 761 142 986 50 894 b 275 536 50 628 142 536 z m 838 972 l 110 0 l 232 0 l 960 972 z m 274 628 b 151 761 200 628 151 681 b 274 894 151 842 200 894 b 394 761 346 894 394 842 b 274 628 394 681 346 628 z m 1307 -14 b 1526 211 1435 -14 1526 78 b 1307 436 1526 344 1435 436 b 1082 211 1174 436 1082 344 b 1307 -14 1082 78 1174 -14 z m 801 -14 b 1021 211 929 -14 1021 78 b 801 436 1021 344 929 436 b 576 211 668 436 576 344 b 801 -14 576 78 668 -14 z m 1306 78 b 1183 211 1232 78 1183 131 b 1306 344 1183 292 1232 344 b 1426 211 1378 344 1426 292 b 1306 78 1426 131 1378 78 z m 800 78 b 678 211 726 78 678 131 b 800 344 678 292 726 344 b 921 211 872 344 921 292 b 800 78 921 131 872 78 z "},"⁄":{"ha":207,"x_min":0,"x_max":0,"o":"m 368 972 l -269 0 l -161 0 l 476 972 z "},"∕":{"ha":526,"x_min":0,"x_max":0,"o":"m 368 972 l -269 0 l -161 0 l 476 972 z "},"⁰":{"ha":489,"x_min":0,"x_max":0,"o":"m 244 436 b 469 711 378 436 469 546 b 244 986 469 878 378 986 b 19 711 114 986 19 878 b 244 436 19 546 114 436 z m 244 524 b 122 711 172 524 122 600 b 244 897 122 824 172 897 b 367 711 317 897 367 824 b 244 524 367 600 317 524 z "},"¹":{"ha":451,"x_min":0,"x_max":0,"o":"m 381 440 l 381 528 l 278 528 l 278 979 l 149 967 l 78 960 l 92 871 l 176 882 l 176 528 l 75 528 l 75 440 z "},"²":{"ha":500,"x_min":0,"x_max":0,"o":"m 418 443 l 431 533 l 206 533 l 325 651 b 424 831 396 718 424 764 b 236 986 424 926 349 986 b 68 922 175 986 113 964 l 110 842 b 229 890 144 872 188 890 b 313 815 281 890 313 863 b 233 685 313 776 289 736 l 67 525 l 79 443 z "},"³":{"ha":460,"x_min":0,"x_max":0,"o":"m 217 436 b 408 590 326 436 408 494 b 319 718 408 653 374 696 b 394 844 367 746 394 792 b 219 986 394 926 321 986 b 54 926 160 986 99 965 l 96 853 b 207 897 132 882 169 897 b 285 831 254 897 285 869 b 204 751 285 781 251 751 l 135 751 l 135 675 l 211 675 b 297 601 261 675 297 651 b 204 524 297 551 258 524 b 85 569 160 524 115 542 l 39 500 b 217 436 85 457 147 436 z "},"⁴":{"ha":476,"x_min":0,"x_max":0,"o":"m 422 547 l 438 633 l 358 633 l 358 976 l 244 974 l 3 624 l 14 547 l 264 547 l 264 439 l 358 439 l 358 547 z m 103 633 l 268 864 l 265 633 z "},"½":{"ha":1158,"x_min":0,"x_max":0,"o":"m 381 440 l 381 528 l 278 528 l 278 979 l 149 967 l 78 960 l 92 871 l 176 882 l 176 528 l 75 528 l 75 440 z m 826 972 l 189 0 l 296 0 l 933 972 z m 1075 0 l 1088 90 l 863 90 l 982 208 b 1081 388 1053 275 1081 321 b 893 543 1081 483 1006 543 b 725 479 832 543 769 521 l 767 399 b 886 447 803 429 846 447 b 971 372 939 447 971 419 b 892 242 971 333 946 293 l 725 82 l 738 0 z "},"¼":{"ha":1093,"x_min":0,"x_max":0,"o":"m 381 440 l 381 528 l 278 528 l 278 979 l 149 967 l 78 960 l 92 871 l 176 882 l 176 528 l 75 528 l 75 440 z m 828 972 l 190 0 l 297 0 l 935 972 z m 1039 107 l 1054 194 l 976 194 l 976 538 l 861 535 l 619 185 l 631 107 l 881 107 l 881 0 l 976 0 l 976 107 z m 721 194 l 885 425 l 882 194 z "},"¾":{"ha":1101,"x_min":0,"x_max":0,"o":"m 217 436 b 408 590 326 436 408 494 b 319 718 408 653 374 696 b 394 844 367 746 394 792 b 219 986 394 926 321 986 b 54 926 160 986 99 965 l 96 853 b 207 897 132 882 169 897 b 285 831 254 897 285 869 b 204 751 285 781 251 751 l 135 751 l 135 675 l 211 675 b 297 601 261 675 297 651 b 204 524 297 551 258 524 b 85 569 160 524 115 542 l 39 500 b 217 436 85 457 147 436 z m 835 972 l 197 0 l 304 0 l 942 972 z m 1047 107 l 1063 194 l 985 194 l 985 538 l 869 535 l 628 185 l 639 107 l 889 107 l 889 0 l 985 0 l 985 107 z m 729 194 l 893 425 l 890 194 z "},"+":{"ha":703,"x_min":0,"x_max":0,"o":"m 619 404 l 619 521 l 410 521 l 410 731 l 293 731 l 293 521 l 83 521 l 83 404 l 293 404 l 293 196 l 410 196 l 410 404 z "},"−":{"ha":703,"x_min":0,"x_max":0,"o":"m 619 404 l 619 521 l 83 521 l 83 404 z "},"×":{"ha":703,"x_min":0,"x_max":0,"o":"m 183 713 l 100 631 l 268 463 l 100 294 l 183 213 l 351 379 l 518 213 l 601 296 l 433 463 l 601 631 l 518 713 l 351 546 z "},"÷":{"ha":703,"x_min":0,"x_max":0,"o":"m 269 713 b 351 631 269 668 306 631 b 433 713 397 631 433 668 b 351 794 433 758 397 794 b 269 713 306 794 269 758 z m 621 404 l 621 521 l 82 521 l 82 404 z m 269 214 b 351 132 269 169 306 132 b 433 214 397 132 433 169 b 351 296 433 260 397 296 b 269 214 306 296 269 260 z "},"=":{"ha":703,"x_min":0,"x_max":0,"o":"m 619 546 l 619 663 l 83 663 l 83 546 z m 619 263 l 619 379 l 83 379 l 83 263 z "},"¬":{"ha":703,"x_min":0,"x_max":0,"o":"m 83 521 l 83 404 l 489 404 l 489 194 l 606 194 l 606 521 z "},"~":{"ha":703,"x_min":0,"x_max":0,"o":"m 465 486 b 367 513 426 486 397 497 b 249 543 335 528 299 543 b 86 457 190 543 121 513 l 136 372 b 239 425 171 407 206 425 b 331 401 272 425 300 415 b 458 367 365 386 404 367 b 615 450 514 367 579 397 l 565 536 b 465 486 533 503 496 486 z "},"<":{"ha":703,"x_min":0,"x_max":0,"o":"m 619 311 l 247 461 l 618 615 l 618 742 l 83 526 l 83 394 l 619 186 z "},">":{"ha":703,"x_min":0,"x_max":0,"o":"m 83 614 l 456 464 l 85 311 l 85 186 l 619 401 l 619 533 l 83 742 z "},"±":{"ha":703,"x_min":0,"x_max":0,"o":"m 619 472 l 619 589 l 410 589 l 410 792 l 293 792 l 293 589 l 83 589 l 83 472 l 293 472 l 293 264 l 410 264 l 410 472 z m 619 0 l 619 117 l 83 117 l 83 0 z "},"^":{"ha":703,"x_min":0,"x_max":0,"o":"m 500 438 l 631 438 l 421 972 l 289 972 l 72 438 l 199 438 l 351 808 z "},"≠":{"ha":703,"x_min":0,"x_max":0,"o":"m 619 263 l 619 379 l 379 379 l 446 546 l 619 546 l 619 663 l 483 663 l 549 832 l 425 832 l 360 663 l 83 663 l 83 546 l 322 546 l 257 379 l 83 379 l 83 263 l 219 263 l 156 94 l 278 94 l 342 263 z "},"≈":{"ha":703,"x_min":0,"x_max":0,"o":"m 465 636 b 367 663 428 636 397 649 b 251 692 335 675 300 692 b 86 606 192 692 121 661 l 129 521 b 238 571 165 556 206 571 b 329 550 272 571 300 563 b 457 515 365 536 403 515 b 615 599 514 515 579 546 l 572 685 b 465 636 538 651 497 636 z m 465 353 b 367 379 428 353 397 365 b 251 408 335 392 300 408 b 86 324 192 408 121 378 l 129 238 b 238 289 165 274 206 289 b 329 267 272 289 300 279 b 457 233 365 253 403 233 b 615 315 514 233 579 263 l 572 401 b 465 353 538 368 497 353 z "},"≤":{"ha":703,"x_min":0,"x_max":0,"o":"m 619 364 l 247 514 l 618 667 l 618 793 l 83 578 l 83 446 l 619 238 z m 619 0 l 619 117 l 83 117 l 83 0 z "},"≥":{"ha":703,"x_min":0,"x_max":0,"o":"m 83 667 l 456 517 l 85 363 l 85 238 l 619 453 l 619 585 l 83 793 z m 83 0 l 619 0 l 619 117 l 83 117 z "},"∞":{"ha":789,"x_min":0,"x_max":0,"o":"m 761 467 b 600 661 761 578 697 656 l 575 661 b 426 572 519 658 471 628 b 397 536 417 561 407 549 b 367 574 388 549 378 561 b 218 661 319 631 272 658 l 193 661 b 28 467 96 656 28 578 b 189 272 28 356 93 278 l 214 272 b 363 360 268 275 317 306 b 392 397 372 372 382 385 b 422 358 401 383 411 371 b 569 272 469 303 515 275 l 594 272 b 761 467 694 278 761 356 z m 578 568 b 664 467 629 568 664 528 b 579 365 664 406 631 365 b 485 418 546 365 514 383 b 449 464 474 433 461 449 l 457 475 b 486 514 467 489 476 501 b 578 568 514 550 542 568 z m 125 467 b 208 568 125 528 160 568 b 304 514 243 568 274 550 b 340 468 315 500 328 485 l 332 457 b 303 419 322 444 313 431 b 210 365 275 383 247 365 b 125 467 160 365 125 406 z "},"◊":{"ha":718,"x_min":0,"x_max":0,"o":"m 46 464 l 69 415 l 293 0 l 425 0 l 649 415 l 672 463 l 649 510 l 425 925 l 293 925 z m 172 465 l 358 808 l 546 460 l 361 117 z "},"√":{"ha":889,"x_min":0,"x_max":0,"o":"m 254 539 l 31 539 l 31 417 l 171 417 l 338 0 l 468 0 l 857 972 l 732 972 l 406 160 z "},"∫":{"ha":674,"x_min":0,"x_max":0,"o":"m 454 754 b 593 890 471 850 518 890 b 657 879 614 890 632 888 l 672 1000 b 579 1014 636 1011 611 1014 b 319 754 435 1014 353 939 l 219 192 b 81 56 203 96 156 56 b 17 67 60 56 40 58 l 1 -54 b 94 -68 36 -65 63 -68 b 354 192 239 -68 321 7 z "},"∂":{"ha":788,"x_min":0,"x_max":0,"o":"m 319 -14 b 701 336 513 -14 665 131 b 714 488 710 388 714 438 b 438 1007 714 708 621 881 l 335 936 b 597 589 472 853 563 733 b 413 676 554 644 490 676 b 49 265 192 676 49 488 b 319 -14 49 103 154 -14 z m 336 97 b 188 274 242 97 188 164 b 417 565 188 421 271 565 b 564 396 507 565 564 499 b 336 97 564 238 472 97 z "},"∏":{"ha":1025,"x_min":0,"x_max":0,"o":"m 988 844 l 988 972 l 38 972 l 38 844 l 196 844 l 196 -153 l 342 -153 l 342 844 l 685 844 l 685 -153 l 831 -153 l 831 844 z "},"π":{"ha":856,"x_min":0,"x_max":0,"o":"m 699 -14 b 832 38 751 -14 800 7 l 785 136 b 722 110 768 122 744 110 b 671 175 689 110 671 131 l 671 560 l 806 560 l 806 674 l 21 674 l 21 560 l 157 560 l 157 0 l 290 0 l 290 560 l 536 560 l 536 157 b 699 -14 536 39 604 -14 z "},"μ":{"ha":803,"x_min":0,"x_max":0,"o":"m 124 -306 l 258 -306 l 258 28 b 376 6 290 3 331 -6 b 547 135 440 15 504 64 l 564 -7 l 697 7 l 672 235 l 672 681 l 538 667 l 538 239 b 356 108 493 160 422 108 b 261 243 294 108 261 154 l 261 681 l 124 667 z "},"∑":{"ha":803,"x_min":0,"x_max":0,"o":"m 733 -19 l 224 -19 l 560 406 l 224 839 l 725 839 l 725 972 l 67 972 l 53 839 l 389 404 l 54 -19 l 68 -153 l 733 -153 z "},"Ω":{"ha":1108,"x_min":0,"x_max":0,"o":"m 488 0 l 488 110 b 251 493 344 158 251 299 b 554 853 251 703 375 853 b 857 493 735 853 857 703 b 621 110 857 297 764 158 l 621 0 l 1025 0 l 1025 110 l 811 110 b 1006 493 931 190 1006 322 b 554 986 1006 786 819 986 b 103 493 290 986 103 786 b 297 110 103 322 178 190 l 83 110 l 83 0 z "},"Ω":{"ha":1108,"x_min":0,"x_max":0,"o":"m 488 0 l 488 110 b 251 493 344 158 251 299 b 554 853 251 703 375 853 b 857 493 735 853 857 703 b 621 110 857 297 764 158 l 621 0 l 1025 0 l 1025 110 l 811 110 b 1006 493 931 190 1006 322 b 554 986 1006 786 819 986 b 103 493 290 986 103 786 b 297 110 103 322 178 190 l 83 110 l 83 0 z "},"Δ":{"ha":1007,"x_min":0,"x_max":0,"o":"m 926 0 l 960 75 l 576 972 l 428 972 l 47 78 l 76 0 z m 215 129 l 500 815 l 789 129 z "},"∆":{"ha":1007,"x_min":0,"x_max":0,"o":"m 926 0 l 960 75 l 576 972 l 428 972 l 47 78 l 76 0 z m 215 129 l 500 815 l 789 129 z "},"ℓ":{"ha":657,"x_min":0,"x_max":0,"o":"m 486 142 b 399 101 463 119 436 104 b 383 100 393 100 389 100 b 278 206 328 100 286 142 b 274 299 275 236 274 267 b 304 313 285 303 294 308 b 561 704 468 397 551 544 b 558 778 563 729 561 754 b 361 986 546 907 472 986 b 153 797 247 986 167 911 b 149 729 150 775 149 753 l 149 372 l 39 325 l 67 221 l 149 256 b 156 161 150 224 153 192 b 364 -14 174 54 253 -14 b 539 54 438 -14 503 15 z m 274 746 b 358 872 274 825 306 872 b 442 736 413 872 442 822 b 274 418 442 603 389 489 z "},"℮":{"ha":1129,"x_min":0,"x_max":0,"o":"m 1075 424 l 1075 436 b 575 886 1075 685 851 886 b 75 436 299 886 75 685 b 575 -14 75 188 299 -14 b 971 161 736 -14 881 56 l 899 161 b 576 13 819 71 706 13 b 269 146 456 13 347 64 b 258 174 263 153 258 163 l 258 418 b 265 424 258 422 261 424 z m 892 456 b 886 449 892 453 890 449 l 265 449 b 258 456 261 449 258 453 l 258 697 b 271 728 258 710 263 719 b 576 860 349 808 457 860 b 879 732 694 860 801 810 b 892 703 888 724 892 714 z "}}}
